<?xml version="1.0" standalone="no"?>
<!DOCTYPE svg PUBLIC "-//W3C//DTD SVG 1.1//EN" "http://www.w3.org/Graphics/SVG/1.1/DTD/svg11.dtd" >
<svg>
<metadata>
Created by FontForge 20110222 at Fri Sep  6 16:16:21 2013
 By Ubuntu
Copyright Luc\ as\  de Groot 1996
</metadata>
<defs>
<font id="TheSansMonoCondensed-Plain" horiz-adv-x="500" >
  <font-face 
    font-family="The Sans Mono Condensed-"
    font-weight="400"
    font-stretch="normal"
    units-per-em="1000"
    panose-1="2 0 5 9 4 0 0 2 0 4"
    ascent="800"
    descent="-200"
    x-height="497"
    cap-height="675"
    bbox="-16 -256 513 853"
    underline-thickness="20"
    underline-position="-130"
    unicode-range="U+0020-FB02"
  />
<missing-glyph 
 />
    <glyph glyph-name=".notdef" 
 />
    <glyph glyph-name=".null" horiz-adv-x="0" 
 />
    <glyph glyph-name="nonmarkingreturn" 
 />
    <glyph glyph-name="space" unicode=" " 
 />
    <glyph glyph-name="Scaron" unicode="&#x160;" 
d="M453 186q0 -44 -17 -80t-47.5 -61.5t-72.5 -39.5t-91 -14q-43 0 -85.5 7.5t-78.5 23.5l22 78q31 -17 69.5 -27.5t80.5 -10.5q57 0 93 29.5t36 82.5q0 41 -22 66t-55 43t-71 34t-71 38.5t-55 56.5t-22 88q0 41 15 75t42.5 58t66.5 37.5t86 13.5q35 0 67.5 -5t60.5 -14
l-20 -71q-27 11 -56 17t-58 6q-57 0 -87.5 -30t-30.5 -76q0 -38 22.5 -62t55.5 -42t72.5 -34t72.5 -39.5t55.5 -58t22.5 -89.5zM128 850l127 -67l126 66l23 -42l-150 -87l-153 83z" />
    <glyph glyph-name="scaron" unicode="&#x161;" 
d="M137 725l114 -91l112 90l36 -41l-150 -122l-149 121zM429 142q0 -36 -15.5 -64.5t-42.5 -48t-64 -29.5t-80 -10q-41 0 -84 8t-78 23l25 70q30 -16 70 -26.5t74 -10.5q48 0 76.5 20t28.5 57q0 28 -19.5 44t-48.5 27.5t-63 21.5t-63 26.5t-48.5 42.5t-19.5 69q0 64 48 105
t136 41q34 0 68.5 -6t61.5 -14l-20 -64q-28 11 -56.5 17t-57.5 6q-45 0 -69 -21.5t-24 -53.5q0 -27 19.5 -43t49 -27.5t64 -22t64 -27t49 -42.5t19.5 -68z" />
    <glyph glyph-name="Yacute" unicode="&#xdd;" 
d="M291 244v-244h-83v244l-200 431h91l118 -265q11 -23 18.5 -43.5t15.5 -43.5h1q8 22 18.5 49t18.5 44l115 259h89zM379 850l28 -58l-188 -72l-19 43z" />
    <glyph glyph-name="yacute" unicode="&#xfd;" 
d="M214 570l-28 47l186 118l35 -60zM282 -46q-38 -110 -98.5 -158t-152.5 -48v73q30 0 55 6t45.5 21t37.5 41t31 67l14 39l-190 502h91l107 -290q11 -31 19 -58t15 -52h2q5 23 16.5 59.5t25.5 79.5l86 261h87z" />
    <glyph glyph-name="Thorn" unicode="&#xde;" 
d="M446 361q0 -51 -17.5 -93t-48.5 -71.5t-74 -46t-95 -16.5q-13 0 -25.5 0.5t-24.5 1.5v-136h-82v675h82v-116q13 1 30.5 1h37.5q104 0 160.5 -54.5t56.5 -144.5zM361 352q0 68 -35.5 103.5t-103.5 35.5h-33t-28 -2v-280q11 -2 25.5 -3t29.5 -1q67 0 106 39t39 108z" />
    <glyph glyph-name="thorn" unicode="&#xfe;" 
d="M452 269q0 -67 -17 -118t-47.5 -86t-73.5 -53t-95 -18q-41 0 -72 6v-247h-80v977h80l1 -218q0 -31 -2.5 -64t-6.5 -61h1q18 54 59.5 86.5t92.5 32.5q78 0 119 -61t41 -176zM365 262q0 88 -24.5 131t-69.5 43q-26 0 -49 -18t-39.5 -48t-26 -68.5t-9.5 -78.5v-153
q35 -11 76 -11q29 0 55 11.5t45.5 36t30.5 63t11 92.5z" />
    <glyph glyph-name="Zcaron" unicode="&#x17d;" 
d="M47 0v61l255 457q14 24 24.5 44t21.5 41q-29 -1 -60.5 -1h-62.5h-167v73h388v-62l-266 -478q-8 -16 -17 -30.5t-18 -30.5q23 1 57.5 1h86.5h165v-75h-407zM128 850l127 -67l126 66l23 -42l-150 -87l-153 83z" />
    <glyph glyph-name="zcaron" unicode="&#x17e;" 
d="M137 725l114 -91l112 90l36 -41l-150 -122l-149 121zM69 0v57l263 371q-19 -1 -50.5 -1.5t-63.5 -0.5h-144v71h354v-56l-260 -370q9 0 23 0.5t30 1t32.5 0.5h29.5h151v-73h-365z" />
    <glyph glyph-name="DLE" 
d="M406 783q-17 -26 -41 -41.5t-56 -15.5q-23 0 -38.5 6t-28.5 13.5t-26.5 13.5t-31.5 6q-17 0 -30.5 -10t-24.5 -25l-36 36q17 28 40 43t57 15q21 0 37 -6t29.5 -13t27 -13t30.5 -6t31 9t25 24l36 -36v0z" />
    <glyph glyph-name="DC1" 
d="M377 723l-128 67l-126 -66l-22 43l149 86l153 -83z" />
    <glyph glyph-name="DC2" 
d="M254 720l-153 83l27 47l127 -67l126 66l23 -42z" />
    <glyph glyph-name="DC3" 
d="M410 776q0 -21 -15 -36t-36 -15t-36 15t-15 36t15 36t36 15t36 -15t15 -36zM192 776q0 -21 -15 -36t-36 -15t-36 15t-15 36t15 36t36 15t36 -15t15 -36z" />
    <glyph glyph-name="DC4" 
d="M18 537q37 71 91 109.5t122 38.5q64 0 110.5 -31t76 -83.5t43.5 -122t14 -145.5q0 -80 -12 -138.5t-32.5 -97t-48.5 -57.5t-60 -19q-40 0 -63.5 29.5t-24.5 75.5h-1q-5 -19 -15 -37.5t-24 -33.5t-30.5 -24.5t-34.5 -9.5q-43 0 -69.5 46.5t-26.5 137.5q0 61 9.5 111.5
t29 86.5t49.5 55.5t71 19.5q24 0 49 -3t48 -8v-270q0 -65 11.5 -87t31.5 -22q14 0 27 14t23.5 43t17 75t6.5 109q0 61 -9.5 119.5t-30.5 104.5t-55 74t-83 28q-47 0 -88 -31.5t-67 -84.5zM221 382q-20 3 -38 3q-39 0 -60 -52.5t-21 -146.5q0 -66 12 -96.5t29 -30.5
q15 0 29 17t25 46.5t17.5 68t6.5 81.5v110z" />
    <glyph glyph-name="onehalf" unicode="&#xbd;" 
d="M91 355v305l-66 -34l-12 62l91 42h60v-375h-73zM56 -26l-49 24l390 750l48 -23zM265 -13v52l68 75q40 44 55.5 76t15.5 62q0 27 -14.5 43t-40.5 16q-17 0 -33 -6t-30 -16l-16 57q19 12 44.5 19.5t53.5 7.5q57 0 84.5 -30.5t27.5 -74.5q0 -38 -17.5 -76.5t-58.5 -84.5
l-51 -58q29 2 63.5 2h74.5v-64h-226z" />
    <glyph glyph-name="onequarter" unicode="&#xbc;" 
d="M91 355v305l-66 -34l-12 62l91 42h60v-375h-73zM56 -26l-49 24l390 750l48 -23zM439 66v-79h-65v79h-172l-2 46l143 255h96v-243h48v-58h-48zM374 308l-106 -186q10 1 25 1.5t30.5 1t29 0.5h21.5v183z" />
    <glyph glyph-name="onesuperior" unicode="&#xb9;" 
d="M228 660l-107 -54l-17 62l137 62h66v-340h102v-65h-302v65h121v270z" />
    <glyph glyph-name="threequarters" unicode="&#xbe;" 
d="M212 467q0 -52 -37.5 -86t-101.5 -34q-16 0 -31 3t-29 6l10 52q13 -5 24.5 -7.5t27.5 -2.5q27 0 46 15.5t19 48.5q0 16 -5.5 28.5t-18.5 20.5t-34 10.5t-52 -2.5v50q54 0 80 14.5t26 52.5q0 23 -13 35t-35 12q-31 0 -60 -18l-12 49q18 9 40 14.5t46 5.5q48 0 75.5 -23
t27.5 -68q0 -35 -17.5 -57t-43.5 -33q31 -4 49.5 -29.5t18.5 -56.5zM73 -26l-49 24l389 750l49 -23zM439 66v-79h-65v79h-168l-2 46l139 255h96v-243h48v-58h-48zM374 308l-101 -186q10 1 24.5 1.5t29.5 1t28 0.5h19v183z" />
    <glyph glyph-name="threesuperior" unicode="&#xb3;" 
d="M366 446q0 -57 -45.5 -94t-124.5 -37q-19 0 -41.5 3.5t-44.5 11.5l12 59q42 -15 82 -15q33 0 56.5 17.5t23.5 50.5q0 32 -33.5 50t-110.5 8v54q77 0 107.5 19t30.5 52q0 23 -16 38t-48 15q-20 0 -41 -7t-41 -19l-16 57q23 12 51.5 19.5t60.5 7.5q66 0 97 -29.5t31 -73.5
q0 -36 -17 -59t-45 -35q28 -6 50 -30.5t22 -62.5z" />
    <glyph glyph-name="twosuperior" unicode="&#xb2;" 
d="M113 325v57l95 91q43 42 64.5 72t21.5 57q0 32 -19.5 50.5t-54.5 18.5q-23 0 -44.5 -7.5t-40.5 -19.5l-19 61q23 14 54 22t68 8q69 0 102.5 -33.5t33.5 -85.5q0 -39 -22.5 -77.5t-69.5 -82.5l-67 -63q18 1 35 1.5t37.5 0.5h46h59.5v-70h-280z" />
    <glyph glyph-name="brokenbar" unicode="&#xa6;" 
d="M218 382v368h63v-368h-63zM218 -250v378h63v-378h-63z" />
    <glyph glyph-name="minus" unicode="&#x2212;" 
d="M77 225v69h337v-69h-337z" />
    <glyph glyph-name="multiply" unicode="&#xd7;" 
d="M400 28l-152 172l-152 -172l-46 47l154 173l-154 173l51 50l151 -169l150 169l47 -46l-153 -172l154 -173z" />
    <glyph glyph-name="RS" 
d="M281 720l-188 72l28 58l179 -87z" />
    <glyph glyph-name="US" 
d="M219 720l-19 43l179 87l28 -58z" />
    <glyph glyph-name="lslash" unicode="&#x142;" 
d="M65 0v65h152v273l-100 -48l-17 57l117 55v265h-147v63h229v-294l88 42l16 -57l-104 -49v-307h149v-65h-383z" />
    <glyph glyph-name="exclam" unicode="!" 
d="M285 179h-70l-17 527h103zM249 114q26 0 44 -18t18 -44t-18 -44t-44 -18t-44 18t-18 44t18 44t44 18z" />
    <glyph glyph-name="quotedbl" unicode="&#x22;" 
d="M197 492h-70l-14 246h98zM370 492h-70l-14 246h98z" />
    <glyph glyph-name="numbersign" unicode="#" 
d="M363 194l-19 -194h-67l19 194h-123l-19 -194h-66l18 194h-86v58h93l18 194h-88v58h94l17 171h65l-15 -171h123l16 171h66l-15 -171h85v-58h-92l-18 -194h87v-58h-93zM321 446h-123l-19 -194h123z" />
    <glyph glyph-name="dollar" unicode="$" 
d="M456 188q0 -72 -46 -120.5t-126 -62.5v-109h-59v105q-45 1 -86.5 8t-80.5 24l19 74q31 -15 69.5 -25t78.5 -12v230q-33 10 -63 23.5t-52.5 33.5t-36 48t-13.5 67q0 36 12.5 65.5t34 52t52 36t66.5 18.5v91h59v-89q31 -1 61.5 -6t57.5 -13l-16 -69q-47 19 -103 22v-219
q37 -11 68.5 -25t54.5 -34.5t36 -48t13 -65.5zM226 578q-46 -8 -69 -34t-23 -64q0 -21 7 -36.5t19.5 -27t29.5 -20.5t36 -17v199zM379 178q0 43 -27 65.5t-69 38.5v-208q49 11 72.5 38t23.5 66z" />
    <glyph glyph-name="percent" 
d="M259 584q0 -38 -10 -67.5t-27 -49.5t-39.5 -30.5t-47.5 -10.5q-54 0 -85 36t-31 115q0 37 10 66t27.5 49t40 30t46.5 10q51 0 83.5 -34.5t32.5 -113.5zM70 -15l-55 29l413 721l54 -30zM481 145q0 -38 -10 -67.5t-27 -49.5t-39.5 -30.5t-47.5 -10.5q-54 0 -85 36.5
t-31 114.5q0 37 10 66t27.5 49t40 30t46.5 10q51 0 83.5 -34.5t32.5 -113.5zM199 577q0 54 -13.5 78t-45.5 24q-28 0 -44.5 -25.5t-16.5 -71.5q0 -54 14 -78t45 -24q28 0 44.5 25.5t16.5 71.5zM421 139q0 53 -13.5 77.5t-45.5 24.5q-28 0 -44.5 -26t-16.5 -72q0 -54 14 -78
t45 -24q28 0 44.5 25.5t16.5 72.5z" />
    <glyph glyph-name="ampersand" unicode="&#x26;" 
d="M394 0q1 29 -5.5 57t-20.5 59q-12 -24 -29 -46.5t-39.5 -40t-51 -28.5t-62.5 -11q-39 0 -68.5 13.5t-49 37t-29.5 55t-10 67.5q0 39 9 71t24.5 59.5t37 52.5t47.5 50q-48 58 -68 101.5t-20 85.5q0 32 10.5 60.5t31 49.5t49.5 33t65 12q66 0 102.5 -38t36.5 -95
q0 -54 -25.5 -100.5t-82.5 -101.5q14 -16 30 -34t32 -35t29.5 -32.5t21.5 -27.5q6 30 10 71.5t4 91.5h74q0 -63 -8.5 -124t-25.5 -112q26 -45 42.5 -92.5t15.5 -108.5h-77zM277 596q0 32 -17 55.5t-52 23.5q-30 0 -51 -23t-21 -63q0 -26 14.5 -60.5t51.5 -77.5
q35 34 55 69.5t20 75.5zM332 188q-35 51 -72.5 90t-64.5 71q-42 -44 -63 -83t-21 -91q0 -23 5.5 -43t16.5 -36t27.5 -25t38.5 -9q27 0 48 11t37 29t28 40.5t20 45.5z" />
    <glyph glyph-name="quotesingle" unicode="'" 
d="M280 492h-76l-14 246h104z" />
    <glyph glyph-name="parenleft" unicode="(" 
d="M355 -224q-59 57 -101 116t-69.5 121t-40.5 128t-13 139q0 152 60 278t166 231l47 -47q-97 -102 -144 -217.5t-47 -238.5q0 -129 47 -242t147 -215z" />
    <glyph glyph-name="parenright" unicode=")" 
d="M149 788q117 -114 170.5 -236t53.5 -267q0 -152 -60 -278.5t-166 -230.5l-47 47q97 101 144 217t47 238q0 130 -47 243t-147 216z" />
    <glyph glyph-name="asterisk" unicode="*" 
d="M416 366l-144 103l11 -185h-65l11 185l-146 -102l-31 57l156 83l-156 84l33 58l144 -104l-10 185h64l-10 -185l143 102l32 -57l-155 -83l156 -82z" />
    <glyph glyph-name="plus" unicode="+" 
d="M288 225v-209h-77v209h-179v68h179v207h77v-207h180v-68h-180z" />
    <glyph glyph-name="comma" unicode="," 
d="M103 -133q34 11 57 24.5t37 28.5t19.5 29.5t5.5 27.5q0 20 -5 32t-11.5 22t-14 20.5t-13.5 27.5q-5 14 -3 29.5t10 28t21.5 21t33.5 8.5q21 0 38 -10t29 -27.5t18.5 -39.5t6.5 -46q0 -46 -15 -83t-43 -65.5t-67 -49t-88 -33.5z" />
    <glyph glyph-name="hyphen" unicode="-" 
d="M101 216v79h284v-79h-284z" />
    <glyph glyph-name="period" unicode="." 
d="M246 162q36 0 61 -25t25 -61t-25 -61t-61 -25t-61.5 25t-25.5 61t25.5 61t61.5 25z" />
    <glyph glyph-name="slash" unicode="/" 
d="M132 -30l-69 28l308 708l69 -28z" />
    <glyph glyph-name="zero" unicode="0" 
d="M464 304q0 -76 -17.5 -134.5t-47.5 -98.5t-70.5 -60.5t-85.5 -20.5q-43 0 -81 15.5t-66 52t-44.5 95.5t-16.5 146q0 75 17.5 133t47.5 97.5t70.5 60t85.5 20.5q42 0 79.5 -15.5t66 -51t45.5 -94t17 -145.5zM377 296q0 128 -33 186.5t-95 58.5q-27 0 -50 -14t-40 -43
t-27 -74t-10 -106q0 -128 33 -186t95 -58q54 0 90.5 56.5t36.5 179.5z" />
    <glyph glyph-name="one" unicode="1" 
d="M85 0v73h151v438l-141 -112l-34 62l188 139h71v-527h129v-73h-364z" />
    <glyph glyph-name="two" unicode="2" 
d="M65 0v66l123 136q39 43 64.5 74.5t40.5 57.5t21 48t6 46q0 49 -27 79t-79 30q-34 0 -63 -13t-52 -33l-31 65q32 25 71.5 39.5t90.5 14.5q43 0 76.5 -13.5t56 -36.5t34 -53.5t11.5 -65.5q0 -66 -33.5 -124t-100.5 -130l-103 -111v-2q42 2 105.5 2.5t151.5 0.5v-77h-363z
" />
    <glyph glyph-name="three" unicode="3" 
d="M418 127q0 -47 -18.5 -87t-51.5 -69.5t-78.5 -46.5t-99.5 -17q-28 0 -57.5 4.5t-52.5 13.5l18 77q22 -10 47.5 -16t53.5 -6q68 0 108 38.5t40 96.5q0 60 -37 95.5t-103 35.5q-22 0 -39 -0.5t-33 -1.5v66h17q88 0 135.5 33t47.5 96q0 50 -31.5 76.5t-76.5 26.5
q-32 0 -59 -9.5t-52 -26.5l-21 68q30 17 67 26.5t80 9.5q85 0 132 -44.5t47 -114.5q0 -59 -32 -100t-77 -58l-1 -1q27 -5 50 -19.5t40 -36t27 -50t10 -59.5z" />
    <glyph glyph-name="four" unicode="4" 
d="M375 88v-171h-82v171h-264l-6 64l236 448h116v-439h100v-73h-100zM294 515h-1l-187 -357q18 1 43.5 1.5t52.5 1t51.5 0.5h40.5v354z" />
    <glyph glyph-name="five" unicode="5" 
d="M428 147q0 -51 -18.5 -94.5t-52.5 -76t-81 -51t-104 -18.5q-22 0 -47.5 3.5t-49.5 10.5l14 78q21 -8 45.5 -13.5t47.5 -5.5q38 0 67 12t49 33t30 49t10 60q0 67 -41 102.5t-110 35.5q-23 0 -47 -2t-39 -4v334h297v-78l-222 1v-184q11 1 21 1h18q51 0 91 -15.5t67 -41.5
t41 -61t14 -75z" />
    <glyph glyph-name="six" unicode="6" 
d="M449 228q0 -53 -15 -96.5t-42 -75t-64 -49t-81 -17.5q-94 0 -143.5 74.5t-49.5 209.5q0 109 22.5 187t61.5 127t91.5 72t112.5 23q13 0 27.5 -0.5t23.5 -2.5l-2 -71q-21 3 -54 3q-81 0 -128 -57.5t-64 -162.5q-2 -9 -4 -23.5t-4 -30.5q20 40 55 63t80 23q41 0 74 -15
t56 -41.5t35 -62.5t12 -77zM365 214q0 63 -28.5 102t-82.5 39q-26 0 -46.5 -12.5t-35 -32.5t-22 -44.5t-7.5 -48.5q0 -32 6.5 -60.5t20 -50.5t34 -34.5t48.5 -12.5q54 0 83.5 43t29.5 112z" />
    <glyph glyph-name="seven" unicode="7" 
d="M440 531q-67 -146 -122 -302.5t-86 -311.5h-92q36 159 90 311.5t120 295.5q-12 -1 -45.5 -1.5t-75.5 -1t-86.5 -0.5h-77.5v79h375v-69v0z" />
    <glyph glyph-name="eight" unicode="8" 
d="M445 169q0 -43 -16.5 -77t-44 -57.5t-64.5 -36t-79 -12.5q-44 0 -78.5 13t-58 35.5t-36 53t-12.5 66.5q0 52 28 97t96 91q-108 68 -108 173q0 37 13 68.5t37 55t57.5 37t74.5 13.5q39 0 71 -11.5t54.5 -31.5t34.5 -48.5t12 -62.5q0 -48 -25.5 -90.5t-87.5 -87.5
q75 -45 103.5 -89.5t28.5 -98.5zM343 530q0 42 -23.5 68.5t-71.5 26.5q-45 0 -70.5 -29.5t-25.5 -71.5q0 -37 22 -68.5t77 -62.5q53 38 72.5 70t19.5 67zM360 158q0 50 -29.5 84t-88.5 66q-52 -37 -77 -72.5t-25 -77.5q0 -46 30 -76t81 -30q22 0 42 7.5t35 21.5t23.5 33.5
t8.5 43.5z" />
    <glyph glyph-name="nine" unicode="9" 
d="M443 328q0 -114 -24 -193.5t-65 -129.5t-95 -73t-114 -23q-39 0 -77 8l10 76q35 -11 74 -11q79 0 130 57.5t70 168.5q2 16 4 29l4 26h-1q-20 -41 -54.5 -64t-79.5 -23q-41 0 -74 15t-56 41.5t-35 62.5t-12 77q0 53 15 96.5t42 75t63.5 49t80.5 17.5q94 0 144 -74t50 -208
zM351 383q0 32 -6.5 60.5t-20 50.5t-34 34.5t-48.5 12.5q-54 0 -83 -43t-29 -112q0 -62 28.5 -101.5t82.5 -39.5q25 0 45.5 13t35 33t22 44.5t7.5 47.5z" />
    <glyph glyph-name="colon" unicode=":" 
d="M326 427q0 -32 -22.5 -54t-54.5 -22t-54 22t-22 54t22 54t54 22t54.5 -22t22.5 -54zM326 81q0 -32 -22.5 -54t-54.5 -22t-54 22t-22 54t22 54.5t54 22.5t54.5 -22.5t22.5 -54.5z" />
    <glyph glyph-name="semicolon" unicode=";" 
d="M326 427q0 -32 -22.5 -54t-54.5 -22t-54 22t-22 54t22 54t54 22t54.5 -22t22.5 -54zM332 34q0 -92 -55.5 -148t-152.5 -83l-18 56q35 10 57.5 24t35.5 28.5t18 29t5 26.5q0 18 -5 30.5t-11.5 23t-14 21.5t-13.5 27q-5 14 -3 29.5t10 28t22 21t34 8.5q21 0 38 -10
t28.5 -27t18 -39t6.5 -46z" />
    <glyph glyph-name="less" unicode="&#x3c;" 
d="M362 -30l-310 280l310 287l52 -53l-252 -233l252 -224z" />
    <glyph glyph-name="equal" unicode="=" 
d="M62 303v67h376v-67h-376zM62 138v66h376v-66h-376z" />
    <glyph glyph-name="greater" unicode="&#x3e;" 
d="M120 -30l-52 54l251 232l-251 224l52 57l311 -280z" />
    <glyph glyph-name="question" unicode="?" 
d="M418 524q0 -40 -16 -69t-38.5 -52.5t-47.5 -45t-43 -46.5t-24 -56.5t9 -75.5h-80q-16 48 -11.5 84t21 63.5t40 49.5t45.5 43.5t37.5 43.5t15.5 51q0 59 -54.5 90t-155.5 31l5 75q74 0 130 -14t93 -39t55.5 -59t18.5 -74zM284 52q0 -26 -18 -44t-44 -18t-44.5 18t-18.5 44
t18.5 44t44.5 18t44 -18t18 -44z" />
    <glyph glyph-name="at" unicode="@" 
d="M481 350q0 -128 -34.5 -194t-87.5 -68q-34 -1 -52.5 24.5t-18.5 67.5h-1q-3 -17 -10.5 -33t-18 -29.5t-24 -21.5t-28.5 -8q-71 0 -71 160q0 49 7.5 91.5t23 74.5t40 50.5t57.5 18.5q41 0 77 -10l-6 -231q-2 -45 8 -65.5t24 -20.5q23 0 40 45t17 146q0 53 -9 103.5
t-27.5 90t-48.5 63.5t-72 24t-76.5 -27.5t-59.5 -76.5t-38.5 -116.5t-13.5 -146.5q0 -72 11.5 -132.5t34 -103.5t55.5 -67t75 -24q28 0 54.5 5.5t49.5 15.5l16 -56q-58 -25 -130 -25q-51 0 -92.5 27.5t-71 77t-45.5 119.5t-16 156q0 96 18.5 175.5t51.5 135.5t78.5 87
t100.5 31q54 0 94.5 -26.5t66.5 -72t39 -106t13 -128.5zM278 424q-11 3 -25 3q-13 0 -23.5 -13t-18 -36t-12 -53.5t-4.5 -66.5q0 -57 5.5 -80.5t19.5 -23.5q9 0 18.5 14t17.5 38t13.5 56.5t6.5 70.5z" />
    <glyph glyph-name="A" unicode="A" 
d="M400 0l-43 160h-220l-44 -160h-83l188 675h105l187 -675h-90zM267 500q-6 22 -11 43.5t-8 40.5h-2q-3 -19 -8.5 -41l-10.5 -42l-75 -274h190z" />
    <glyph glyph-name="B" unicode="B" 
d="M451 200q0 -40 -13.5 -76.5t-42 -64.5t-71.5 -45t-101 -17q-27 0 -67.5 1t-84.5 2v675q32 1 75 2t91 1q95 0 143 -43.5t48 -120.5q0 -51 -24.5 -93.5t-72.5 -62.5q54 -12 87 -53t33 -105zM342 503q0 46 -26 77t-93 31h-36t-34 -1v-229q13 -1 25.5 -1h26.5
q68 0 102.5 31.5t34.5 91.5zM365 195q0 36 -13 59.5t-34.5 37.5t-50.5 19.5t-61 5.5h-53v-247q11 -2 31 -3.5t44 -1.5q69 0 103 37t34 93z" />
    <glyph glyph-name="C" unicode="C" 
d="M463 32q-36 -19 -78.5 -29.5t-90.5 -10.5q-65 0 -113 23t-79 65.5t-46 103.5t-15 137q0 78 16 144.5t49 114.5t83.5 75t118.5 27q76 0 144 -31l-23 -73q-32 17 -60.5 24.5t-61.5 7.5q-47 0 -81 -21t-55.5 -58t-31.5 -87.5t-10 -109.5q0 -131 44.5 -199t135.5 -68
q37 0 68.5 9t60.5 26l25 -70v0z" />
    <glyph glyph-name="D" unicode="D" 
d="M470 344q0 -87 -20 -152t-58 -108.5t-93 -65t-125 -21.5q-41 0 -69.5 1.5t-59.5 1.5v674q33 2 69.5 3t82.5 1q138 0 205.5 -80t67.5 -254zM385 339q0 143 -46 207t-146 64q-20 0 -36 -0.5t-30 -1.5v-537q15 -2 29 -3.5t28 -1.5q47 0 84.5 15.5t63.5 49t39.5 85
t13.5 123.5z" />
    <glyph glyph-name="E" unicode="E" 
d="M89 0v675h328v-68h-245v-226h234v-66h-234v-245h246v-70h-329z" />
    <glyph glyph-name="F" unicode="F" 
d="M175 606v-238h244v-67h-244v-301h-82v675h339v-69h-257z" />
    <glyph glyph-name="G" unicode="G" 
d="M434 579q-34 17 -64 25.5t-66 8.5q-85 0 -137 -68t-52 -210q0 -137 45.5 -204t133.5 -67q22 0 43.5 4.5t38.5 13.5v260h82v-315q-38 -17 -81 -26.5t-91 -9.5q-128 0 -193 88t-65 245q0 77 17.5 143t53 114t88.5 75.5t124 27.5q74 0 145 -31z" />
    <glyph glyph-name="H" unicode="H" 
d="M369 0v315h-238v-315h-82v675h82v-289h238v289h82v-675h-82z" />
    <glyph glyph-name="I" unicode="I" 
d="M77 607v68h346v-68h-132v-537h132v-70h-346v70h131v537h-131z" />
    <glyph glyph-name="J" unicode="J" 
d="M390 202q0 -45 -12.5 -83t-37 -66t-61 -44t-85.5 -16q-34 0 -69 8t-62 23l27 68q23 -14 50.5 -21.5t56.5 -7.5q23 0 43 7.5t35 24t24 44t9 67.5v400h-221v69h303v-473z" />
    <glyph glyph-name="K" unicode="K" 
d="M368 0l-213 336v-336h-82v675h82v-320l205 320h99l-222 -326l238 -349h-107z" />
    <glyph glyph-name="L" unicode="L" 
d="M110 0v675h81v-605h251v-70h-332z" />
    <glyph glyph-name="M" unicode="M" 
d="M402 0l-14 430q-1 23 -2 47t-1.5 46t-1 41t-0.5 32h-1q-5 -23 -10 -49t-11 -46l-85 -275h-67l-74 263q-8 28 -14 54.5t-11 52.5q-1 -34 -1.5 -76.5t-2.5 -92.5l-12 -427h-69l27 675h95l72 -242q7 -24 13.5 -51t11.5 -53h2q6 27 11.5 50.5t13.5 46.5l79 249h95l31 -675
h-74z" />
    <glyph glyph-name="N" unicode="N" 
d="M342 0l-172 435q-16 39 -26.5 69.5t-22.5 64.5q1 -26 2 -69t2 -92.5t1.5 -100.5t0.5 -94v-213h-74v675h106l169 -418q15 -38 28 -75.5t24 -72.5q-1 31 -2 77t-1.5 97.5t-1 104t-0.5 96.5v191h74v-675h-107z" />
    <glyph glyph-name="O" unicode="O" 
d="M478 345q0 -85 -17.5 -151t-48.5 -111.5t-74.5 -69t-95.5 -23.5q-60 0 -102 24.5t-68.5 69t-38 107t-11.5 139.5q0 85 17.5 151t49 111.5t75 69t95.5 23.5q106 0 162.5 -87.5t56.5 -252.5zM390 333q0 141 -33.5 210.5t-105.5 69.5q-62 0 -101.5 -69.5t-39.5 -200.5
q0 -66 7.5 -118t24.5 -88t43 -55t64 -19q60 0 100.5 68t40.5 202z" />
    <glyph glyph-name="P" unicode="P" 
d="M446 480q0 -51 -17.5 -92.5t-48.5 -71.5t-74 -46t-95 -16h-25.5t-24.5 1v-255h-82v675q34 2 73 3t77 1q104 0 160.5 -54.5t56.5 -144.5zM361 471q0 68 -35.5 104t-103.5 36q-17 0 -33 -0.5t-28 -2.5v-280q11 -2 25.5 -3t29.5 -1q67 0 106 39t39 108z" />
    <glyph glyph-name="Q" unicode="Q" 
d="M484 -178q-46 -9 -80.5 -2.5t-64.5 17t-60 18t-68 0.5v73q43 7 75.5 0t62.5 -17t61.5 -17t73.5 1v-73zM478 345q0 -85 -17.5 -151t-48.5 -111.5t-74.5 -69t-95.5 -23.5q-60 0 -102 24.5t-68.5 69t-38 107t-11.5 139.5q0 85 17.5 151t49 111.5t75 69t95.5 23.5
q106 0 162.5 -87.5t56.5 -252.5zM390 333q0 141 -33.5 210.5t-105.5 69.5q-62 0 -101.5 -69.5t-39.5 -200.5q0 -66 7.5 -118t24.5 -88t43 -55t64 -19q60 0 100.5 68t40.5 202z" />
    <glyph glyph-name="R" unicode="R" 
d="M359 0l-185 307h-24v-307h-81v675q29 2 68.5 3t82.5 1q46 0 84 -10.5t65 -31.5t42 -53.5t15 -77.5t-15 -79t-39 -57t-54.5 -36t-61.5 -16q14 -17 26 -36t23 -36l155 -246h-101zM340 500q0 58 -34 84.5t-94 26.5q-14 0 -32.5 -1t-29.5 -2v-234q7 -1 24.5 -1.5t34.5 -0.5
q58 0 94.5 35t36.5 93z" />
    <glyph glyph-name="S" unicode="S" 
d="M453 186q0 -44 -17 -80t-47.5 -61.5t-72.5 -39.5t-91 -14q-43 0 -85.5 7.5t-78.5 23.5l22 78q31 -17 69.5 -27.5t80.5 -10.5q57 0 93 29.5t36 82.5q0 41 -22 66t-55 43t-71 34t-71 38.5t-55 56.5t-22 88q0 41 15 75t42.5 58t66.5 37.5t86 13.5q35 0 67.5 -5t60.5 -14
l-20 -71q-27 11 -56 17t-58 6q-57 0 -87.5 -30t-30.5 -76q0 -38 22.5 -62t55.5 -42t72.5 -34t72.5 -39.5t55.5 -58t22.5 -89.5z" />
    <glyph glyph-name="T" unicode="T" 
d="M293 605v-605h-85v605h-180v70h444v-70h-179z" />
    <glyph glyph-name="U" unicode="U" 
d="M455 251q0 -68 -15 -117t-43 -80.5t-67.5 -47t-88.5 -15.5q-57 0 -95 19t-60.5 51t-31.5 73t-9 86v455h82v-448q0 -35 5.5 -66t19 -53.5t37 -35.5t59.5 -13q59 0 92.5 42t33.5 141v433h81v-424v0z" />
    <glyph glyph-name="V" unicode="V" 
d="M305 0h-112l-181 675h90l117 -448q8 -30 16 -67t16 -73h1q8 35 17.5 72t17.5 71l116 445h86z" />
    <glyph glyph-name="W" unicode="W" 
d="M438 0h-102l-69 246q-7 23 -11.5 46t-8.5 41h-1q-5 -20 -10.5 -44t-11.5 -47l-66 -242h-95l-39 675h74l21 -475q2 -33 3 -62t1 -61h1q5 28 12.5 57.5t14.5 55.5l64 247h66l75 -264q6 -21 12 -46t10 -51h2q0 26 0.5 50.5t1.5 48.5l22 500h71z" />
    <glyph glyph-name="X" unicode="X" 
d="M380 0l-135 283l-134 -283h-95l180 347l-170 328h95l126 -261l122 261h94l-167 -325l185 -350h-101z" />
    <glyph glyph-name="Y" unicode="Y" 
d="M291 244v-244h-83v244l-200 431h91l118 -265q11 -23 18.5 -43.5t15.5 -43.5h1q8 22 18.5 49t18.5 44l115 259h89z" />
    <glyph glyph-name="Z" unicode="Z" 
d="M47 0v61l256 457q14 24 24.5 44t23.5 41q-29 -1 -60.5 -1h-62.5h-170v73h388v-62l-266 -478q-8 -16 -17 -30.5t-18 -30.5q23 1 57.5 1h86.5h165v-75h-407z" />
    <glyph glyph-name="bracketleft" unicode="[" 
d="M149 -198v969h217v-63h-142v-842h142v-64h-217z" />
    <glyph glyph-name="backslash" unicode="\" 
d="M364 -30l-298 708l69 29l298 -709z" />
    <glyph glyph-name="bracketright" unicode="]" 
d="M125 -198v64h143v842h-143v63h218v-969h-218z" />
    <glyph glyph-name="asciicircum" unicode="^" 
d="M378 344l-133 269l-126 -269l-56 30l152 301h64l158 -300z" />
    <glyph glyph-name="underscore" unicode="_" 
d="M0 -247v66h500v-66h-500z" />
    <glyph glyph-name="grave" unicode="`" 
d="M286 570l-193 105l35 60l186 -118z" />
    <glyph glyph-name="a" unicode="a" 
d="M348 0q0 28 0.5 54t3.5 45l-1 1q-10 -23 -27 -43t-39 -34.5t-48 -23t-54 -8.5q-62 0 -98.5 35.5t-36.5 96.5q0 37 16.5 68.5t52.5 54.5t91.5 36t133.5 13v36q0 58 -28.5 84.5t-81.5 26.5q-37 0 -72.5 -12t-63.5 -30l-24 64q33 18 76.5 30.5t94.5 12.5q95 0 137.5 -41.5
t42.5 -120.5v-197q0 -38 0.5 -76t1.5 -72h-77zM342 236h-13q-60 0 -99 -8.5t-61.5 -22.5t-31.5 -32.5t-9 -38.5q0 -36 21 -56t56 -20q27 0 52 13t44 35t30 50t11 57v23z" />
    <glyph glyph-name="b" unicode="b" 
d="M452 269q0 -67 -17 -118t-48 -86t-74.5 -53t-97.5 -18q-45 0 -80 4t-68 15v717h80v-217q0 -34 -2 -66t-6 -60l1 -1q18 55 59.5 87.5t92.5 32.5q78 0 119 -61t41 -176zM365 262q0 88 -24.5 131t-69.5 43q-26 0 -49 -18t-39.5 -48t-26 -68.5t-9.5 -78.5v-152
q16 -7 34.5 -9.5t41.5 -2.5q29 0 55 11.5t45.5 36t30.5 63t11 92.5z" />
    <glyph glyph-name="c" unicode="c" 
d="M443 26q-35 -17 -77.5 -25.5t-82.5 -8.5q-56 0 -98 17t-70.5 48.5t-43 75.5t-14.5 99q0 61 16.5 111.5t48 86.5t77 55.5t102.5 19.5q37 0 71.5 -7t64.5 -23l-21 -69q-25 14 -56 22.5t-60 8.5q-36 0 -65 -14t-49.5 -39.5t-31.5 -60.5t-11 -78q0 -38 9 -71.5t28 -58t47 -39
t67 -14.5q33 0 67 8.5t61 22.5l21 -67v0z" />
    <glyph glyph-name="d" unicode="d" 
d="M356 0q0 27 2 56.5t5 57.5l-1 1q-18 -57 -60.5 -90.5t-93.5 -33.5q-78 0 -119 61t-41 176q0 66 17 117.5t47.5 86.5t73 53t94.5 18q41 0 73 -6v233h80v-730h-77zM353 427q-35 11 -76 11q-29 0 -55 -11.5t-45.5 -36t-30.5 -63t-11 -92.5q0 -88 24.5 -131t69.5 -43
q26 0 49 18t39.5 48t26 68t9.5 79v153z" />
    <glyph glyph-name="e" unicode="e" 
d="M454 293v-22t-2 -23h-324v-11q0 -48 11.5 -82.5t31.5 -56t48 -31.5t60 -10q35 0 72.5 10t74.5 29l19 -64q-40 -19 -87.5 -30.5t-94.5 -11.5q-50 0 -90 15.5t-68.5 47t-44 80t-15.5 113.5q0 57 14.5 104.5t42 82.5t67 54.5t90.5 19.5q49 0 85.5 -17.5t61 -46.5t36.5 -68
t12 -82zM373 306q0 67 -33 103.5t-84 36.5q-49 0 -85 -36t-41 -104h243z" />
    <glyph glyph-name="f" unicode="f" 
d="M465 655q-20 8 -42 11.5t-45 3.5q-48 0 -72 -32.5t-24 -102.5v-96h180v-65h-180v-374h-81v374h-162v65h162v92q0 108 49 156.5t132 48.5q24 0 50.5 -4t49.5 -11z" />
    <glyph glyph-name="g" unicode="g" 
d="M459 -74q0 -41 -18.5 -74.5t-50.5 -57.5t-75 -37t-91 -13q-43 0 -78.5 10t-60.5 29t-38.5 46t-13.5 62q0 21 7 41t19 36.5t27 29t30 18.5q-19 11 -31 30t-12 45t13 49.5t37 37.5q-35 17 -56.5 53t-21.5 90q0 85 52.5 135t140.5 50q17 0 36 -3t35 -6h146v-60h-75
q14 -17 25.5 -42.5t11.5 -59.5q0 -39 -13 -72t-38 -57.5t-62 -38t-86 -13.5h-13.5t-14.5 2q-15 -8 -24.5 -21t-9.5 -27q0 -22 17 -34.5t55 -12.5h67q80 0 122 -36t42 -99zM337 329q0 57 -28 87.5t-76 30.5q-49 0 -78.5 -33t-29.5 -86q0 -57 28.5 -86t76.5 -29t77.5 29.5
t29.5 86.5zM378 -86q0 78 -95 78h-78h-14.5t-14.5 2q-25 -12 -44.5 -37.5t-19.5 -54.5q0 -46 35.5 -70.5t89.5 -24.5q29 0 54.5 7.5t45 21.5t30.5 33.5t11 44.5z" />
    <glyph glyph-name="h" unicode="h" 
d="M352 0v322q0 57 -19 87.5t-59 30.5q-26 0 -48.5 -17t-40 -46.5t-27.5 -69t-10 -84.5v-223h-80v730h80v-223q0 -28 -1 -61t-6 -58l2 -1q17 58 57.5 89t94.5 31q36 0 62 -12.5t42.5 -34.5t24.5 -52t8 -65v-343h-80z" />
    <glyph glyph-name="i" unicode="i" 
d="M75 0v65h155v369h-145v63h225v-432h139v-65h-374zM266 721q29 0 48.5 -19.5t19.5 -48.5t-19.5 -48.5t-48.5 -19.5q-28 0 -47.5 19.5t-19.5 48.5t19.5 48.5t47.5 19.5z" />
    <glyph glyph-name="j" unicode="j" 
d="M375 -25q0 -59 -14 -102.5t-39.5 -72t-61.5 -42t-80 -13.5q-52 0 -90 20t-62 49l50 56q23 -28 48.5 -42.5t57.5 -14.5q25 0 45.5 8t35 27t22.5 48.5t8 73.5v461h-215v66h295v-522zM328 721q29 0 48.5 -19.5t19.5 -48.5t-19.5 -48.5t-48.5 -19.5q-28 0 -47.5 19.5
t-19.5 48.5t19.5 48.5t47.5 19.5z" />
    <glyph glyph-name="k" unicode="k" 
d="M371 0l-211 258v-258h-81v730h81v-452l200 219h105l-217 -227l233 -270h-110z" />
    <glyph glyph-name="l" unicode="l" 
d="M217 667h-150v63h232v-665h149v-65h-383v65h152v602z" />
    <glyph glyph-name="m" unicode="m" 
d="M393 0v327q0 60 -4 87.5t-27 27.5q-15 0 -29 -16t-24.5 -44t-17 -67t-6.5 -85v-230h-70v324q0 63 -6 90.5t-28 27.5q-15 0 -28.5 -16t-23.5 -44t-16 -67t-6 -85v-230h-74v497h70q0 -29 -2 -57t-6 -59h1q8 55 35 90.5t68 35.5q42 0 59.5 -34.5t15.5 -91.5q12 57 39 91.5
t68 34.5q48 0 67 -41.5t19 -117.5v-348h-74z" />
    <glyph glyph-name="n" unicode="n" 
d="M352 0v322q0 57 -19 87.5t-59 30.5q-26 0 -48.5 -17t-40 -46.5t-27.5 -69t-10 -84.5v-223h-80v497h76q0 -32 -1 -63.5t-4 -48.5l2 -1q19 60 60 91.5t94 31.5q36 0 62 -12.5t42.5 -34.5t24.5 -52t8 -65v-343h-80z" />
    <glyph glyph-name="o" unicode="o" 
d="M460 252q0 -58 -15.5 -106t-44.5 -82.5t-69.5 -53.5t-89.5 -19q-42 0 -78.5 13.5t-63.5 44t-42.5 79t-15.5 118.5q0 57 15.5 104.5t44 82t68.5 54t88 19.5q44 0 81.5 -14.5t64.5 -45.5t42 -79t15 -115zM376 246q0 93 -32 142.5t-92 49.5q-54 0 -90.5 -46t-36.5 -140
t32.5 -142.5t92.5 -48.5q55 0 90.5 47t35.5 138z" />
    <glyph glyph-name="p" unicode="p" 
d="M452 269q0 -66 -17 -117.5t-47.5 -86.5t-73 -53t-94.5 -18q-20 0 -38.5 1.5t-34.5 4.5v-247h-80v744h77q0 -27 -2 -56.5t-5 -57.5l1 -1q18 57 60.5 90.5t93.5 33.5q78 0 119 -61t41 -176zM365 262q0 88 -24.5 131t-69.5 43q-26 0 -49 -18t-39.5 -48t-26 -68.5t-9.5 -78.5
v-153q35 -11 76 -11q29 0 55 11.5t45.5 36t30.5 63t11 92.5z" />
    <glyph glyph-name="q" unicode="q" 
d="M353 -247v227q0 34 2 66.5t6 63.5h-1q-18 -54 -59.5 -86.5t-92.5 -32.5q-78 0 -119 61t-41 176q0 67 17 118t48 86t74.5 53t97.5 18q38 0 76 -4t72 -12v-734h-80zM353 429q-19 5 -38.5 7t-37.5 2q-29 0 -55 -11.5t-45.5 -36t-30.5 -63t-11 -92.5q0 -88 24.5 -131
t69.5 -43q26 0 49 18t39.5 48t26 68t9.5 79v155z" />
    <glyph glyph-name="r" unicode="r" 
d="M245 497q0 -31 -1 -67.5t-6 -75.5l1 -1q21 69 61 112t100 43q38 0 73 -15l-22 -75q-14 8 -30 12.5t-31 4.5q-33 0 -59 -21t-44.5 -56t-28.5 -79.5t-10 -91.5v-122h121v-65h-318v65h117v369h-117v63h194v0z" />
    <glyph glyph-name="s" unicode="s" 
d="M427 142q0 -36 -15 -64.5t-42 -48t-63.5 -29.5t-79.5 -10q-41 0 -84 8t-78 23l25 72q30 -17 70 -27.5t74 -10.5q48 0 76.5 19.5t28.5 56.5q0 27 -19.5 43.5t-48 28t-62.5 22t-62.5 27t-48 42.5t-19.5 68q0 64 47 105t135 41q34 0 67.5 -5.5t62.5 -14.5l-20 -65
q-28 11 -56.5 17.5t-57.5 6.5q-45 0 -69 -21.5t-24 -53.5q0 -26 19.5 -42t48.5 -27.5t63.5 -22.5t63.5 -27.5t48.5 -42.5t19.5 -68z" />
    <glyph glyph-name="t" unicode="t" 
d="M443 23q-31 -16 -65.5 -23.5t-69.5 -7.5q-69 0 -107 37.5t-38 129.5v272h-136v66h136v163l80 23v-186h184v-66h-184v-252q0 -36 5.5 -59t16.5 -36.5t27 -18.5t37 -5q49 0 93 25l21 -62v0z" />
    <glyph glyph-name="u" unicode="u" 
d="M356 0q0 24 1 53.5t4 58.5l-2 1q-19 -60 -60 -91.5t-94 -31.5q-36 0 -62 12.5t-42.5 34.5t-24.5 52t-8 65v343h80v-322q0 -57 19 -87.5t59 -30.5q25 0 48 17t40.5 46.5t27.5 69t10 84.5v223h80v-497h-76z" />
    <glyph glyph-name="v" unicode="v" 
d="M304 0h-108l-171 497h92l112 -341q6 -19 12 -39.5t11 -39.5h1q5 19 10 38.5t12 39.5l112 342h88z" />
    <glyph glyph-name="w" unicode="w" 
d="M431 0h-98l-71 217q-5 14 -8.5 29t-7.5 32h-1q-3 -17 -6.5 -33t-8.5 -30l-68 -215h-91l-60 497h77l35 -329q2 -17 3.5 -41.5t3.5 -41.5h1q4 19 9.5 40t10.5 37l65 212h64l73 -213q5 -17 11.5 -38t10.5 -38h1q2 20 3.5 42t3.5 41l30 329h75z" />
    <glyph glyph-name="x" unicode="x" 
d="M371 0l-123 196l-124 -196h-98l173 253l-163 244h97l120 -187l120 187h90l-159 -243l170 -254h-103z" />
    <glyph glyph-name="y" unicode="y" 
d="M280 -46q-20 -55 -44 -94t-54 -64t-67.5 -36.5t-83.5 -11.5v73q30 0 55 6t46 21t38 41t31 67l14 39l-191 502h91l106 -290q11 -31 19.5 -58t15.5 -52h2q13 49 42 137l86 263h87z" />
    <glyph glyph-name="z" unicode="z" 
d="M69 0v57l263 371q-19 -1 -50.5 -1.5t-63.5 -0.5h-144v71h354v-56l-260 -370q9 0 23 0.5t30 1t32.5 0.5h29.5h151v-73h-365z" />
    <glyph glyph-name="braceleft" unicode="{" 
d="M366 -197q-90 0 -129.5 47t-39.5 141v184q0 58 -27.5 82.5t-97.5 27.5v65q36 1 60.5 7t38.5 18t20 32.5t6 50.5v125q0 40 8.5 74.5t28 59.5t52 39t80.5 14h33v-63h-27q-49 0 -75 -29t-26 -92v-124q0 -64 -21.5 -99.5t-74.5 -43.5v-1q52 -8 74 -45.5t22 -100.5v-184
q0 -66 26.5 -93.5t74.5 -27.5h27v-64h-33z" />
    <glyph glyph-name="bar" unicode="|" 
d="M218 -210v1000h64v-1000h-64z" />
    <glyph glyph-name="braceright" unicode="}" 
d="M425 285q-36 -2 -59.5 -7.5t-38 -17.5t-20.5 -32.5t-6 -50.5v-187q0 -40 -8.5 -74.5t-28 -59.5t-52 -39t-80.5 -14h-33v63h27q48 0 74 28.5t26 92.5v186q0 64 22 99t75 45v1q-52 7 -74.5 44.5t-22.5 100.5v122q0 66 -26 93.5t-74 27.5h-27v64h33q90 0 129.5 -47.5
t39.5 -140.5v-123q0 -58 27 -82t97 -27v-65v0z" />
    <glyph glyph-name="asciitilde" unicode="~" 
d="M470 564q0 -65 -34.5 -105.5t-96.5 -40.5q-43 0 -67 17.5t-41.5 39t-33 39t-40.5 17.5q-30 0 -43.5 -26t-14.5 -66h-67v10q0 66 34.5 106.5t96.5 40.5q43 0 67 -17.5t41.5 -39t33 -39t40.5 -17.5q30 0 43.5 25.5t14.5 65.5h67v-10v0z" />
    <glyph glyph-name="DEL" 
 />
    <glyph glyph-name="Adieresis" unicode="&#xc4;" 
d="M400 0l-43 160h-220l-44 -160h-83l188 675h105l187 -675h-90zM267 500q-6 22 -11 43.5t-8 40.5h-2q-3 -19 -8.5 -41l-10.5 -42l-75 -274h190zM141 827q21 0 36 -15t15 -36t-15 -36t-36 -15t-36 15t-15 36t15 36t36 15zM359 827q21 0 36 -15t15 -36t-15 -36t-36 -15
t-36 15t-15 36t15 36t36 15z" />
    <glyph glyph-name="Aring" unicode="&#xc5;" 
d="M400 0l-43 160h-220l-44 -160h-83l182 656q-23 11 -36 32.5t-13 50.5q0 21 8.5 40t23 32.5t34 21.5t41.5 8q46 0 76.5 -28.5t30.5 -73.5q0 -26 -14 -48.5t-35 -33.5l182 -657h-90zM304 739q0 23 -15.5 39t-38.5 16t-38.5 -16t-15.5 -39t15.5 -39t38.5 -16t38.5 16
t15.5 39zM267 504q-6 22 -11 43.5t-8 42.5h-2q-4 -19 -9 -42t-10 -43l-75 -278h190z" />
    <glyph glyph-name="Ccedilla" unicode="&#xc7;" 
d="M463 32q-36 -19 -78.5 -29.5t-90.5 -10.5q-65 0 -113 23t-79 65.5t-46 103.5t-15 137q0 78 16 144.5t49 114.5t83.5 75t118.5 27q76 0 144 -31l-23 -73q-32 17 -60.5 24.5t-61.5 7.5q-47 0 -81 -21t-55.5 -58t-31.5 -87.5t-10 -109.5q0 -131 44.5 -199t135.5 -68
q37 0 68.5 9t60.5 26zM310 -51q12 -24 15.5 -48t-5 -48t-31.5 -47t-65 -44l-33 36q50 32 56.5 70.5t-16.5 80.5h79z" />
    <glyph glyph-name="Eacute" unicode="&#xc9;" 
d="M89 0v675h328v-68h-245v-226h234v-66h-234v-245h246v-70h-329zM379 850l28 -58l-188 -72l-19 43z" />
    <glyph glyph-name="Ntilde" unicode="&#xd1;" 
d="M342 0l-172 435q-16 39 -26.5 69.5t-22.5 64.5q1 -26 2 -69t2 -92.5t1.5 -100.5t0.5 -94v-213h-74v675h106l169 -418q15 -38 28 -75.5t24 -72.5q-1 31 -2 77t-1.5 97.5t-1 104t-0.5 96.5v191h74v-675h-107zM406 783q-17 -26 -41 -41.5t-56 -15.5q-23 0 -38.5 6
t-28.5 13.5t-26.5 13.5t-31.5 6q-17 0 -30.5 -10t-24.5 -25l-36 36q17 28 40 43t57 15q21 0 37 -6t29.5 -13t27 -13t30.5 -6t31 9t25 24z" />
    <glyph glyph-name="Odieresis" unicode="&#xd6;" 
d="M478 345q0 -85 -17.5 -151t-48.5 -111.5t-74.5 -69t-95.5 -23.5q-60 0 -102 24.5t-68.5 69t-38 107t-11.5 139.5q0 85 17.5 151t49 111.5t75 69t95.5 23.5q106 0 162.5 -87.5t56.5 -252.5zM390 333q0 141 -33.5 210.5t-105.5 69.5q-62 0 -101.5 -69.5t-39.5 -200.5
q0 -66 7.5 -118t24.5 -88t43 -55t64 -19q60 0 100.5 68t40.5 202zM141 827q21 0 36 -15t15 -36t-15 -36t-36 -15t-36 15t-15 36t15 36t36 15zM359 827q21 0 36 -15t15 -36t-15 -36t-36 -15t-36 15t-15 36t15 36t36 15z" />
    <glyph glyph-name="Udieresis" unicode="&#xdc;" 
d="M455 251q0 -68 -15 -117t-43 -80.5t-67.5 -47t-88.5 -15.5q-57 0 -95 19t-60.5 51t-31.5 73t-9 86v455h82v-448q0 -35 5.5 -66t19 -53.5t37 -35.5t59.5 -13q59 0 92.5 42t33.5 141v433h81v-424zM141 827q21 0 36 -15t15 -36t-15 -36t-36 -15t-36 15t-15 36t15 36t36 15z
M359 827q21 0 36 -15t15 -36t-15 -36t-36 -15t-36 15t-15 36t15 36t36 15z" />
    <glyph glyph-name="aacute" unicode="&#xe1;" 
d="M348 0q0 28 0.5 54t3.5 45l-1 1q-10 -23 -27 -43t-39 -34.5t-48 -23t-54 -8.5q-62 0 -98.5 35.5t-36.5 96.5q0 37 16.5 68.5t52.5 54.5t91.5 36t133.5 13v36q0 58 -28.5 84.5t-81.5 26.5q-37 0 -72.5 -12t-63.5 -30l-24 64q33 18 76.5 30.5t94.5 12.5q95 0 137.5 -41.5
t42.5 -120.5v-197q0 -38 0.5 -76t1.5 -72h-77zM342 236h-13q-60 0 -99 -8.5t-61.5 -22.5t-31.5 -32.5t-9 -38.5q0 -36 21 -56t56 -20q27 0 52 13t44 35t30 50t11 57v23zM214 570l-28 47l186 118l35 -60z" />
    <glyph glyph-name="agrave" unicode="&#xe0;" 
d="M286 570l-193 105l35 60l186 -118zM348 0q0 28 0.5 54t3.5 45l-1 1q-10 -23 -27 -43t-39 -34.5t-48 -23t-54 -8.5q-62 0 -98.5 35.5t-36.5 96.5q0 37 16.5 68.5t52.5 54.5t91.5 36t133.5 13v36q0 58 -28.5 84.5t-81.5 26.5q-37 0 -72.5 -12t-63.5 -30l-24 64
q33 18 76.5 30.5t94.5 12.5q95 0 137.5 -41.5t42.5 -120.5v-197q0 -38 0.5 -76t1.5 -72h-77zM342 236h-13q-60 0 -99 -8.5t-61.5 -22.5t-31.5 -32.5t-9 -38.5q0 -36 21 -56t56 -20q27 0 52 13t44 35t30 50t11 57v23z" />
    <glyph glyph-name="acircumflex" unicode="&#xe2;" 
d="M348 0q0 28 0.5 54t3.5 45l-1 1q-10 -23 -27 -43t-39 -34.5t-48 -23t-54 -8.5q-62 0 -98.5 35.5t-36.5 96.5q0 37 16.5 68.5t52.5 54.5t91.5 36t133.5 13v36q0 58 -28.5 84.5t-81.5 26.5q-37 0 -72.5 -12t-63.5 -30l-24 64q33 18 76.5 30.5t94.5 12.5q95 0 137.5 -41.5
t42.5 -120.5v-197q0 -38 0.5 -76t1.5 -72h-77zM342 236h-13q-60 0 -99 -8.5t-61.5 -22.5t-31.5 -32.5t-9 -38.5q0 -36 21 -56t56 -20q27 0 52 13t44 35t30 50t11 57v23zM363 571l-114 91l-112 -91l-36 42l150 122l149 -121z" />
    <glyph glyph-name="adieresis" unicode="&#xe4;" 
d="M348 0q0 28 0.5 54t3.5 45l-1 1q-10 -23 -27 -43t-39 -34.5t-48 -23t-54 -8.5q-62 0 -98.5 35.5t-36.5 96.5q0 37 16.5 68.5t52.5 54.5t91.5 36t133.5 13v36q0 58 -28.5 84.5t-81.5 26.5q-37 0 -72.5 -12t-63.5 -30l-24 64q33 18 76.5 30.5t94.5 12.5q95 0 137.5 -41.5
t42.5 -120.5v-197q0 -38 0.5 -76t1.5 -72h-77zM342 236h-13q-60 0 -99 -8.5t-61.5 -22.5t-31.5 -32.5t-9 -38.5q0 -36 21 -56t56 -20q27 0 52 13t44 35t30 50t11 57v23zM149 709q23 0 39.5 -16.5t16.5 -39.5t-16.5 -39.5t-39.5 -16.5t-39 16.5t-16 39.5t16 39.5t39 16.5z
M351 709q23 0 39 -16.5t16 -39.5t-16 -39.5t-39 -16.5t-39.5 16.5t-16.5 39.5t16.5 39.5t39.5 16.5z" />
    <glyph glyph-name="atilde" unicode="&#xe3;" 
d="M348 0q0 28 0.5 54t3.5 45l-1 1q-10 -23 -27 -43t-39 -34.5t-48 -23t-54 -8.5q-62 0 -98.5 35.5t-36.5 96.5q0 37 16.5 68.5t52.5 54.5t91.5 36t133.5 13v36q0 58 -28.5 84.5t-81.5 26.5q-37 0 -72.5 -12t-63.5 -30l-24 64q33 18 76.5 30.5t94.5 12.5q95 0 137.5 -41.5
t42.5 -120.5v-197q0 -38 0.5 -76t1.5 -72h-77zM342 236h-13q-60 0 -99 -8.5t-61.5 -22.5t-31.5 -32.5t-9 -38.5q0 -36 21 -56t56 -20q27 0 52 13t44 35t30 50t11 57v23zM405 649q-18 -27 -44 -43.5t-61 -16.5q-23 0 -38.5 7.5t-28 16t-26 16t-31.5 7.5q-17 0 -30.5 -9.5
t-24.5 -24.5l-31 44q16 24 39.5 38t50.5 14q22 0 37.5 -7.5t29 -16.5t27 -16.5t31.5 -7.5q21 0 38 12t31 29z" />
    <glyph glyph-name="aring" unicode="&#xe5;" 
d="M346 642q0 -19 -7.5 -36t-21 -29.5t-31 -19.5t-36.5 -7q-42 0 -69 26t-27 66q0 19 7.5 36t21 29.5t30.5 19.5t37 7q42 0 69 -26t27 -66zM348 0q0 28 0.5 54t3.5 45l-1 1q-10 -23 -27 -43t-39 -34.5t-48 -23t-54 -8.5q-62 0 -98.5 35.5t-36.5 96.5q0 37 16.5 68.5
t52.5 54.5t91.5 36t133.5 13v36q0 58 -28.5 84.5t-81.5 26.5q-37 0 -72.5 -12t-63.5 -30l-24 64q33 18 76.5 30.5t94.5 12.5q95 0 137.5 -41.5t42.5 -120.5v-197q0 -38 0.5 -76t1.5 -72h-77zM300 642q0 22 -14 36.5t-36 14.5t-36 -14.5t-14 -36.5t14 -36.5t36 -14.5t36 14.5
t14 36.5zM342 236h-13q-60 0 -99 -8.5t-61.5 -22.5t-31.5 -32.5t-9 -38.5q0 -36 21 -56t56 -20q27 0 52 13t44 35t30 50t11 57v23z" />
    <glyph glyph-name="ccedilla" unicode="&#xe7;" 
d="M443 26q-35 -17 -79 -25.5t-87 -8.5q-106 0 -163 61.5t-57 178.5q0 61 16 111.5t47.5 86.5t76.5 55.5t104 19.5q37 0 73 -8t63 -22l-21 -69q-23 14 -55 22.5t-61 8.5q-36 0 -65 -14t-49.5 -39.5t-31.5 -60.5t-11 -78q0 -38 9 -71.5t28 -58t47 -39t67 -14.5q33 0 67 8.5
t61 22.5zM309 -51q12 -24 15.5 -48t-5 -48t-31.5 -47t-65 -44l-33 36q50 32 56.5 70.5t-16.5 80.5h79z" />
    <glyph glyph-name="eacute" unicode="&#xe9;" 
d="M454 293v-22t-2 -23h-324v-11q0 -48 11.5 -82.5t31.5 -56t48 -31.5t60 -10q35 0 72.5 10t74.5 29l19 -64q-40 -19 -87.5 -30.5t-94.5 -11.5q-50 0 -90 15.5t-68.5 47t-44 80t-15.5 113.5q0 57 14.5 104.5t42 82.5t67 54.5t90.5 19.5q49 0 85.5 -17.5t61 -46.5t36.5 -68
t12 -82zM373 306q0 67 -33 103.5t-84 36.5q-49 0 -85 -36t-41 -104h243zM214 570l-28 47l186 118l35 -60z" />
    <glyph glyph-name="egrave" unicode="&#xe8;" 
d="M286 570l-193 105l35 60l186 -118zM454 293v-22t-2 -23h-324v-11q0 -48 11.5 -82.5t31.5 -56t48 -31.5t60 -10q35 0 72.5 10t74.5 29l19 -64q-40 -19 -87.5 -30.5t-94.5 -11.5q-50 0 -90 15.5t-68.5 47t-44 80t-15.5 113.5q0 57 14.5 104.5t42 82.5t67 54.5t90.5 19.5
q49 0 85.5 -17.5t61 -46.5t36.5 -68t12 -82zM373 306q0 67 -33 103.5t-84 36.5q-49 0 -85 -36t-41 -104h243z" />
    <glyph glyph-name="ecircumflex" unicode="&#xea;" 
d="M454 293v-22t-2 -23h-324v-11q0 -48 11.5 -82.5t31.5 -56t48 -31.5t60 -10q35 0 72.5 10t74.5 29l19 -64q-40 -19 -87.5 -30.5t-94.5 -11.5q-50 0 -90 15.5t-68.5 47t-44 80t-15.5 113.5q0 57 14.5 104.5t42 82.5t67 54.5t90.5 19.5q49 0 85.5 -17.5t61 -46.5t36.5 -68
t12 -82zM373 306q0 67 -33 103.5t-84 36.5q-49 0 -85 -36t-41 -104h243zM362 571l-114 91l-112 -91l-36 42l150 122l149 -121z" />
    <glyph glyph-name="edieresis" unicode="&#xeb;" 
d="M454 293v-22t-2 -23h-324v-11q0 -48 11.5 -82.5t31.5 -56t48 -31.5t60 -10q35 0 72.5 10t74.5 29l19 -64q-40 -19 -87.5 -30.5t-94.5 -11.5q-50 0 -90 15.5t-68.5 47t-44 80t-15.5 113.5q0 57 14.5 104.5t42 82.5t67 54.5t90.5 19.5q49 0 85.5 -17.5t61 -46.5t36.5 -68
t12 -82zM373 306q0 67 -33 103.5t-84 36.5q-49 0 -85 -36t-41 -104h243zM149 709q23 0 39.5 -16.5t16.5 -39.5t-16.5 -39.5t-39.5 -16.5t-39 16.5t-16 39.5t16 39.5t39 16.5zM351 709q23 0 39 -16.5t16 -39.5t-16 -39.5t-39 -16.5t-39.5 16.5t-16.5 39.5t16.5 39.5
t39.5 16.5z" />
    <glyph glyph-name="iacute" unicode="&#xed;" 
d="M75 0v65h155v369h-145v63h225v-432h139v-65h-374zM214 570l-28 47l186 118l35 -60z" />
    <glyph glyph-name="igrave" unicode="&#xec;" 
d="M286 570l-193 105l35 60l186 -118zM75 0v65h155v369h-145v63h225v-432h139v-65h-374z" />
    <glyph glyph-name="icircumflex" unicode="&#xee;" 
d="M75 0v65h155v369h-145v63h225v-432h139v-65h-374zM363 571l-114 91l-112 -91l-36 42l150 122l149 -121z" />
    <glyph glyph-name="idieresis" unicode="&#xef;" 
d="M75 0v65h155v369h-145v63h225v-432h139v-65h-374zM149 709q23 0 39.5 -16.5t16.5 -39.5t-16.5 -39.5t-39.5 -16.5t-39 16.5t-16 39.5t16 39.5t39 16.5zM351 709q23 0 39 -16.5t16 -39.5t-16 -39.5t-39 -16.5t-39.5 16.5t-16.5 39.5t16.5 39.5t39.5 16.5z" />
    <glyph glyph-name="ntilde" unicode="&#xf1;" 
d="M405 649q-18 -27 -44 -43.5t-61 -16.5q-23 0 -38.5 7.5t-28 16t-26 16t-31.5 7.5q-17 0 -30.5 -9.5t-24.5 -24.5l-31 44q16 24 39.5 38t50.5 14q22 0 37.5 -7.5t29 -16.5t27 -16.5t31.5 -7.5q21 0 38 12t31 29zM352 0v322q0 57 -19 87.5t-59 30.5q-26 0 -48.5 -17
t-40 -46.5t-27.5 -69t-10 -84.5v-223h-80v497h76q0 -32 -1 -63.5t-4 -48.5l2 -1q19 60 60 91.5t94 31.5q36 0 62 -12.5t42.5 -34.5t24.5 -52t8 -65v-343h-80z" />
    <glyph glyph-name="oacute" unicode="&#xf3;" 
d="M460 252q0 -58 -15.5 -106t-44.5 -82.5t-69.5 -53.5t-89.5 -19q-42 0 -78.5 13.5t-63.5 44t-42.5 79t-15.5 118.5q0 57 15.5 104.5t44 82t68.5 54t88 19.5q44 0 81.5 -14.5t64.5 -45.5t42 -79t15 -115zM376 246q0 93 -32 142.5t-92 49.5q-54 0 -90.5 -46t-36.5 -140
t32.5 -142.5t92.5 -48.5q55 0 90.5 47t35.5 138zM214 570l-28 47l186 118l35 -60z" />
    <glyph glyph-name="ograve" unicode="&#xf2;" 
d="M287 570l-193 105l35 60l186 -118zM460 252q0 -58 -15.5 -106t-44.5 -82.5t-69.5 -53.5t-89.5 -19q-42 0 -78.5 13.5t-63.5 44t-42.5 79t-15.5 118.5q0 57 15.5 104.5t44 82t68.5 54t88 19.5q44 0 81.5 -14.5t64.5 -45.5t42 -79t15 -115zM376 246q0 93 -32 142.5
t-92 49.5q-54 0 -90.5 -46t-36.5 -140t32.5 -142.5t92.5 -48.5q55 0 90.5 47t35.5 138z" />
    <glyph glyph-name="ocircumflex" unicode="&#xf4;" 
d="M460 252q0 -58 -15.5 -106t-44.5 -82.5t-69.5 -53.5t-89.5 -19q-42 0 -78.5 13.5t-63.5 44t-42.5 79t-15.5 118.5q0 57 15.5 104.5t44 82t68.5 54t88 19.5q44 0 81.5 -14.5t64.5 -45.5t42 -79t15 -115zM376 246q0 93 -32 142.5t-92 49.5q-54 0 -90.5 -46t-36.5 -140
t32.5 -142.5t92.5 -48.5q55 0 90.5 47t35.5 138zM363 571l-114 91l-112 -91l-36 42l150 122l149 -121z" />
    <glyph glyph-name="odieresis" unicode="&#xf6;" 
d="M460 252q0 -58 -15.5 -106t-44.5 -82.5t-69.5 -53.5t-89.5 -19q-42 0 -78.5 13.5t-63.5 44t-42.5 79t-15.5 118.5q0 57 15.5 104.5t44 82t68.5 54t88 19.5q44 0 81.5 -14.5t64.5 -45.5t42 -79t15 -115zM376 246q0 93 -32 142.5t-92 49.5q-54 0 -90.5 -46t-36.5 -140
t32.5 -142.5t92.5 -48.5q55 0 90.5 47t35.5 138zM149 709q23 0 39.5 -16.5t16.5 -39.5t-16.5 -39.5t-39.5 -16.5t-39 16.5t-16 39.5t16 39.5t39 16.5zM351 709q23 0 39 -16.5t16 -39.5t-16 -39.5t-39 -16.5t-39.5 16.5t-16.5 39.5t16.5 39.5t39.5 16.5z" />
    <glyph glyph-name="otilde" unicode="&#xf5;" 
d="M405 649q-18 -27 -44 -43.5t-61 -16.5q-23 0 -38.5 7.5t-28 16t-26 16t-31.5 7.5q-17 0 -30.5 -9.5t-24.5 -24.5l-31 44q16 24 39.5 38t50.5 14q22 0 37.5 -7.5t29 -16.5t27 -16.5t31.5 -7.5q21 0 38 12t31 29zM460 252q0 -58 -15.5 -106t-44.5 -82.5t-69.5 -53.5
t-89.5 -19q-42 0 -78.5 13.5t-63.5 44t-42.5 79t-15.5 118.5q0 57 15.5 104.5t44 82t68.5 54t88 19.5q44 0 81.5 -14.5t64.5 -45.5t42 -79t15 -115zM376 246q0 93 -32 142.5t-92 49.5q-54 0 -90.5 -46t-36.5 -140t32.5 -142.5t92.5 -48.5q55 0 90.5 47t35.5 138z" />
    <glyph glyph-name="uacute" unicode="&#xfa;" 
d="M214 570l-28 47l186 118l35 -60zM356 0q0 24 1 53.5t4 58.5l-2 1q-19 -60 -60 -91.5t-94 -31.5q-36 0 -62 12.5t-42.5 34.5t-24.5 52t-8 65v343h80v-322q0 -57 19 -87.5t59 -30.5q25 0 48 17t40.5 46.5t27.5 69t10 84.5v223h80v-497h-76z" />
    <glyph glyph-name="ugrave" unicode="&#xf9;" 
d="M286 570l-193 105l35 60l186 -118zM356 0q0 24 1 53.5t4 58.5l-2 1q-19 -60 -60 -91.5t-94 -31.5q-36 0 -62 12.5t-42.5 34.5t-24.5 52t-8 65v343h80v-322q0 -57 19 -87.5t59 -30.5q25 0 48 17t40.5 46.5t27.5 69t10 84.5v223h80v-497h-76z" />
    <glyph glyph-name="ucircumflex" unicode="&#xfb;" 
d="M363 571l-114 91l-112 -91l-36 42l150 122l149 -121zM356 0q0 24 1 53.5t4 58.5l-2 1q-19 -60 -60 -91.5t-94 -31.5q-36 0 -62 12.5t-42.5 34.5t-24.5 52t-8 65v343h80v-322q0 -57 19 -87.5t59 -30.5q25 0 48 17t40.5 46.5t27.5 69t10 84.5v223h80v-497h-76z" />
    <glyph glyph-name="udieresis" unicode="&#xfc;" 
d="M406 653q0 -23 -16 -39.5t-39 -16.5t-39.5 16.5t-16.5 39.5t16.5 39.5t39.5 16.5t39 -16.5t16 -39.5zM205 653q0 -23 -16.5 -39.5t-39.5 -16.5t-39 16.5t-16 39.5t16 39.5t39 16.5t39.5 -16.5t16.5 -39.5zM356 0q0 24 1 53.5t4 58.5l-2 1q-19 -60 -60 -91.5t-94 -31.5
q-36 0 -62 12.5t-42.5 34.5t-24.5 52t-8 65v343h80v-322q0 -57 19 -87.5t59 -30.5q25 0 48 17t40.5 46.5t27.5 69t10 84.5v223h80v-497h-76z" />
    <glyph glyph-name="dagger" unicode="&#x2020;" 
d="M283 489l16 -148l-20 -341h-57l-20 341l16 148h-157v63h157l-16 178h97l-16 -178h157v-63h-157z" />
    <glyph glyph-name="degree" unicode="&#xb0;" 
d="M414 557q0 -41 -14.5 -73.5t-38.5 -55.5t-55 -35t-64 -12q-75 0 -118.5 47t-43.5 126q0 42 14.5 75t38 56t54 35t63.5 12q42 0 73 -14t51.5 -38t30 -55.5t9.5 -67.5zM342 556q0 20 -5 40.5t-16.5 37.5t-29.5 28t-44 11q-41 0 -68 -31.5t-27 -85.5q0 -55 26 -84.5
t68 -29.5q43 0 69.5 31t26.5 83z" />
    <glyph glyph-name="cent" unicode="&#xa2;" 
d="M444 128q-30 -14 -64 -23.5t-64 -11.5v-93h-59v92q-45 3 -82 19.5t-63.5 47t-41 75t-14.5 104.5q0 55 15.5 100.5t42.5 79t63.5 54.5t79.5 27v76h59v-74q29 -1 58.5 -7t61.5 -21l-20 -66q-26 13 -51 19t-49 7v-369q26 1 53.5 8.5t53.5 21.5zM257 530q-23 -5 -44.5 -19.5
t-38 -37.5t-26.5 -54.5t-10 -70.5q0 -86 34 -129t85 -53v364z" />
    <glyph glyph-name="sterling" unicode="&#xa3;" 
d="M62 0v60q30 22 52 44t36.5 45t21.5 49t7 57q0 23 -6 80h-111v64h103q-2 30 -7.5 64t-5.5 60q0 91 50 137.5t137 46.5q19 0 44 -2.5t46 -8.5l-12 -66q-17 5 -38 7.5t-42 2.5q-50 0 -77 -28.5t-27 -81.5q0 -24 5.5 -58t8.5 -73h160v-64h-154q2 -21 3.5 -40t1.5 -33
q0 -32 -5 -58t-15.5 -48.5t-28 -43.5t-42.5 -42q13 1 29 2t35 1h217v-73h-386z" />
    <glyph glyph-name="section" unicode="&#xa7;" 
d="M438 157q0 -27 -6 -57.5t-17.5 -60.5t-28 -58t-36.5 -50q-29 -32 -65.5 -50t-90.5 -18q-17 0 -37.5 2t-38.5 7l9 68q17 -6 38 -9.5t39 -3.5q43 0 64.5 20.5t21.5 55.5q0 29 -16.5 56t-41.5 55t-54 58.5t-54 65.5t-41.5 77t-16.5 93q0 28 6 59t17 61.5t27.5 58t36.5 49.5
q29 32 65.5 50.5t86.5 18.5q18 0 39.5 -2t35.5 -6l-9 -65q-17 5 -35.5 7.5t-37.5 2.5q-45 0 -65 -22t-20 -61q0 -28 16.5 -53.5t41.5 -52.5t54.5 -56.5t54.5 -65t41.5 -78.5t16.5 -96zM364 142q0 45 -14 80.5t-36 65.5t-48 56.5t-49 53.5t-40.5 56t-22.5 65q-7 -22 -11 -45
t-4 -46q0 -44 14 -79t35 -65t46.5 -56.5t48.5 -54t41 -58t24 -68.5q7 20 11.5 43.5t4.5 51.5z" />
    <glyph glyph-name="bullet" unicode="&#x2022;" 
d="M402 304q0 -32 -12 -59.5t-32.5 -48t-48.5 -32.5t-59 -12q-32 0 -59.5 12t-48 32.5t-32.5 48t-12 59.5t12 59.5t32.5 48t48 32.5t59.5 12q31 0 59 -12t48.5 -32.5t32.5 -48t12 -59.5z" />
    <glyph glyph-name="paragraph" unicode="&#xb6;" 
d="M398 609v-705h-68v705h-66v-705h-67v411q-32 6 -60 20.5t-48 37.5t-31.5 53.5t-11.5 68.5q0 39 14 72t40 57t62 37.5t80 13.5h213v-66h-57z" />
    <glyph glyph-name="germandbls" unicode="&#xdf;" 
d="M465 145q0 -68 -46.5 -110.5t-128.5 -42.5q-21 0 -44 3t-39 8l14 70q17 -8 36.5 -11.5t37.5 -3.5q45 0 66.5 21.5t21.5 53.5q0 28 -12.5 46.5t-30.5 33t-40 28t-40 32t-30.5 44t-12.5 65.5q0 43 17.5 69t38 46.5t38 42t17.5 55.5q0 39 -22 58t-55 19q-50 0 -78.5 -39.5
t-28.5 -124.5v-508h-79v501q0 64 15 108.5t41.5 72.5t61.5 41t74 13q35 0 63.5 -10t48.5 -28t31 -42.5t11 -52.5q0 -48 -17.5 -74.5t-39 -45.5t-39 -38.5t-17.5 -53.5q0 -27 12.5 -45t31 -33t40 -28.5t40 -32t31 -44t12.5 -63.5z" />
    <glyph glyph-name="registered" unicode="&#xae;" 
d="M466 495q0 -52 -17 -98t-46.5 -80.5t-69 -54.5t-83.5 -20q-46 0 -85.5 19.5t-68.5 53.5t-45.5 80.5t-16.5 99.5q0 52 17 98t46 80t68.5 53.5t84.5 19.5q46 0 85.5 -19.5t68.5 -53t45.5 -79.5t16.5 -99zM410 493q0 42 -12.5 79t-34 64t-51 43t-62.5 16t-62.5 -15.5
t-51 -42.5t-34 -63t-12.5 -78t12.5 -79t34 -64.5t51 -43.5t62.5 -16t62.5 16t51 43t34 63.5t12.5 77.5zM337 565q0 -35 -15 -54t-37 -27q3 -6 9 -16.5t11 -21.5l41 -90h-62l-51 119h-12v-119h-51v282h88q42 0 60.5 -20t18.5 -53zM281 557q0 20 -7.5 29t-26.5 9h-26v-82h18
q23 0 32.5 14t9.5 30z" />
    <glyph glyph-name="copyright" unicode="&#xa9;" 
d="M250 669q57 0 102 -26t76.5 -71t48.5 -105.5t17 -129.5t-17 -130t-48.5 -106t-76.5 -71.5t-102 -26.5q-59 0 -104.5 25.5t-76.5 70t-47 105.5t-16 132q0 69 16.5 129.5t48 106t77 71.5t102.5 26zM250 612q-45 0 -79.5 -21.5t-58 -58.5t-35.5 -87.5t-12 -107.5t12 -107.5
t35.5 -88t58 -59.5t79.5 -22t79.5 21.5t58 59t35.5 88t12 107.5q0 56 -12 106.5t-35.5 88t-58 59.5t-79.5 22zM344 177q-20 -10 -43 -15.5t-47 -5.5q-35 0 -59.5 13t-40 36t-22.5 55.5t-7 70.5q0 36 7.5 70t24.5 60t44 41.5t66 15.5q41 0 72 -16l-13 -56q-29 15 -59 15
q-22 0 -37 -9.5t-24 -26.5t-13 -40.5t-4 -50.5q0 -57 18 -87.5t58 -30.5q33 0 62 16z" />
    <glyph glyph-name="trademark" unicode="&#x2122;" 
d="M435 394l-18 156l-6 55l-9 -47l-35 -164h-56l-37 167l-8 44l-3 -36l-18 -175h-53l35 281h71l36 -163l8 -47l7 43l37 167h70l36 -281h-57zM124 626v-232h-58v232h-59v49h175v-49h-58z" />
    <glyph glyph-name="acute" unicode="&#xb4;" 
d="M214 570l-28 47l186 118l35 -60z" />
    <glyph glyph-name="dieresis" unicode="&#xa8;" 
d="M406 653q0 -23 -16 -39.5t-39 -16.5t-39.5 16.5t-16.5 39.5t16.5 39.5t39.5 16.5t39 -16.5t16 -39.5zM205 653q0 -23 -16.5 -39.5t-39.5 -16.5t-39 16.5t-16 39.5t16 39.5t39 16.5t39.5 -16.5t16.5 -39.5z" />
    <glyph glyph-name="notequal" unicode="&#x2260;" 
d="M302 517h72l-50 -147h129v-67h-151l-34 -99h185v-67h-208l-48 -143h-72l49 143h-127v67h149l34 99h-183v67h206z" />
    <glyph glyph-name="AE" unicode="&#xc6;" 
d="M271 0v160h-149l-55 -160h-77l240 675h254v-68h-141v-226h134v-66h-134v-245h151v-70h-223zM271 603h-1q-7 -23 -15 -50t-19 -56l-94 -273h129v379z" />
    <glyph glyph-name="Oslash" unicode="&#xd8;" 
d="M369 654q53 -36 81 -112t28 -197q0 -86 -17 -152.5t-48 -111.5t-74.5 -68t-96.5 -23q-32 0 -60 11l-31 -107l-58 16l32 113q-55 39 -79 118t-24 189q0 85 17 151.5t48 111.5t74.5 68.5t97.5 23.5q31 0 54 -10l28 99l58 -16zM200 72q23 -13 51 -13q31 0 58.5 18t47 52.5
t31 84.5t11.5 115q0 100 -14 155.5t-40 85.5zM295 607q-21 11 -45 11q-65 0 -107 -69.5t-42 -205.5q0 -87 12.5 -145t35.5 -91z" />
    <glyph glyph-name="infinity" unicode="&#x221e;" 
d="M494 276q0 -35 -8 -65.5t-23 -53t-36 -35.5t-47 -13q-36 0 -68.5 30t-64.5 78q-30 -45 -63 -76.5t-69 -31.5q-51 0 -80 43t-29 115q0 36 8 66.5t23 53t36 35.5t47 13q35 0 66.5 -29t66.5 -80q32 46 64.5 77.5t67.5 31.5q51 0 80 -43.5t29 -115.5zM426 271q0 45 -13.5 70
t-36.5 25q-21 0 -44 -27.5t-47 -63.5q23 -39 47.5 -68t45.5 -29q23 0 35.5 27t12.5 66zM215 268q-29 47 -51 72t-42 25q-23 0 -35.5 -26.5t-12.5 -66.5q0 -44 13.5 -69t36.5 -25q20 0 42.5 27t48.5 63z" />
    <glyph glyph-name="plusminus" unicode="&#xb1;" 
d="M290 275v-194h-77v194h-173v67h173v193h77v-193h174v-67h-174zM47 -57v69h409v-69h-409z" />
    <glyph glyph-name="lessequal" unicode="&#x2264;" 
d="M367 65l-301 246l301 247l48 -57l-237 -189l237 -187zM72 -57v69h356v-69h-356z" />
    <glyph glyph-name="greaterequal" unicode="&#x2265;" 
d="M133 65l-49 56l238 190l-238 186l48 61l302 -246zM72 -57v69h356v-69h-356z" />
    <glyph glyph-name="yen" unicode="&#xa5;" 
d="M309 312h132v-58h-150v-95h150v-57h-150v-102h-83v102h-150v57h150v95h-150v58h132l-177 363h90l114 -243q10 -20 18.5 -41.5t16.5 -44.5h1q9 22 19.5 49t18.5 44l110 236h88z" />
    <glyph glyph-name="mu" unicode="&#xb5;" 
d="M361 0q0 23 0.5 51.5t4.5 59.5h-2q-17 -57 -54 -88t-83 -31q-30 0 -52.5 12.5t-32.5 27.5h-1q1 -22 1.5 -44t0.5 -65v-170h-80v744h80v-322q0 -57 22.5 -87.5t65.5 -30.5q25 0 48 17t40.5 46.5t27.5 69t10 84.5v223h80v-497h-76z" />
    <glyph glyph-name="partialdiff" unicode="&#x2202;" 
d="M451 396q0 -86 -18.5 -168t-56.5 -139q-28 -42 -71.5 -69.5t-94.5 -27.5q-85 0 -129 55.5t-44 151.5q0 51 15 94.5t42 75.5t64.5 50t82.5 18q48 0 80.5 -25t47.5 -69q1 14 1 29.5v30.5q0 67 -14.5 117t-40 83.5t-60 50t-73.5 16.5l9 67q58 -3 106 -26t82.5 -66t53 -105.5
t18.5 -143.5zM344 238q0 57 -27.5 94t-80.5 37q-26 0 -47.5 -12.5t-37.5 -34.5t-25 -52t-9 -64q0 -73 29.5 -108.5t74.5 -35.5q26 0 48.5 13.5t39 37t26 55.5t9.5 70z" />
    <glyph glyph-name="summation" unicode="&#x2211;" 
d="M53 0v60l191 285l-179 270v60h359v-69h-257l172 -256l-187 -278h286v-72h-385z" />
    <glyph glyph-name="product" unicode="&#x220f;" 
d="M221 280v-122h-60v357h101q27 0 47 -9.5t33.5 -25t20.5 -35t7 -40.5q0 -24 -7.5 -46.5t-22.5 -40t-37.5 -28t-53.5 -10.5h-28zM308 399q0 24 -12.5 44t-44.5 20h-30v-131h32q29 0 42 20.5t13 46.5zM250 669q57 0 102 -26t76.5 -71t48.5 -105.5t17 -129.5t-17 -130
t-48.5 -106t-76.5 -71.5t-102 -26.5q-59 0 -104.5 25.5t-76.5 70t-47 105.5t-16 132q0 69 16.5 129.5t48 106t77 71.5t102.5 26zM250 612q-45 0 -79.5 -21.5t-58 -58.5t-35.5 -87.5t-12 -107.5t12 -107.5t35.5 -88t58 -59.5t79.5 -22t79.5 21.5t58 59t35.5 88t12 107.5
q0 56 -12 106.5t-35.5 88t-58 59.5t-79.5 22z" />
    <glyph glyph-name="pi" unicode="&#x3c0;" 
d="M474 1q-15 -5 -32.5 -7.5t-37.5 -2.5q-51 0 -73.5 34.5t-22.5 103.5v302h-142v-431h-76v431h-74v66h446v-66h-78v-261q0 -37 2.5 -59.5t7.5 -35t14 -16.5t22 -4q17 0 34 6l10 -60v0z" />
    <glyph glyph-name="integral" unicode="&#x222b;" 
d="M397 653q-12 5 -24.5 7.5t-23.5 2.5q-16 0 -28 -6.5t-20.5 -25.5t-12.5 -52t-4 -86q0 -60 1.5 -114t3.5 -111t3.5 -121.5t1.5 -143.5q0 -74 -10 -123.5t-29 -79.5t-47 -43t-64 -13q-14 0 -31.5 2t-31.5 7l14 74q13 -5 26 -7.5t24 -2.5q17 0 30 6.5t22 24.5t14 50t5 83
q0 56 -1.5 110t-4 112.5t-4 125t-1.5 146.5q0 74 10 124t28.5 80t45.5 43t62 13q31 0 60 -8l-14 -74v0z" />
    <glyph glyph-name="ordfeminine" unicode="&#xaa;" 
d="M321 319q0 14 1 33t3 33q-18 -33 -53.5 -53t-74.5 -20q-51 0 -77.5 26.5t-26.5 67.5q0 26 14 49t41.5 40t68.5 27t94 10h8v22q0 33 -18 53t-66 20q-32 0 -59 -8t-49 -22l-18 55q57 31 138 31q75 0 107 -33t32 -88v-147v-96h-65zM89 185v65h320v-65h-320zM319 485h-12
q-42 0 -69.5 -6t-44 -15.5t-23.5 -22t-7 -25.5q0 -23 15 -35.5t39 -12.5q21 0 40 10t32.5 26t21.5 35t8 36v10z" />
    <glyph glyph-name="ordmasculine" unicode="&#xba;" 
d="M421 504q0 -43 -13 -78t-37 -60t-57 -39t-72 -14q-81 0 -122.5 49t-41.5 135q0 44 14.5 79t38.5 59t56 36.5t67 12.5q78 0 122.5 -49t44.5 -131zM88 185v65h324v-65h-324zM347 499q0 25 -5.5 47.5t-17 39.5t-29.5 27.5t-44 10.5q-18 0 -36 -6.5t-32 -21t-23 -38.5t-9 -58
q0 -23 5 -46t16.5 -41t29.5 -29t45 -11q42 0 71 29.5t29 96.5z" />
    <glyph glyph-name="Omega" unicode="&#x2126;" 
d="M291 0v64q56 45 84.5 112t28.5 170q0 57 -9 107t-28 87.5t-47.5 59.5t-67.5 22q-37 0 -66.5 -20t-49.5 -56t-31 -85.5t-11 -109.5q0 -99 26 -167t90 -120v-64h-192v63h119q-61 44 -90.5 117t-29.5 168q0 74 17 136t47.5 106.5t74.5 69.5t98 25q51 0 93 -21.5t72.5 -63
t47 -102.5t16.5 -141q0 -101 -32 -176.5t-90 -117.5h120v-63h-190z" />
    <glyph glyph-name="ae" unicode="&#xe6;" 
d="M492 298v-29.5t-1 -28.5h-211q-2 -92 21.5 -137t74.5 -45q23 0 48 5.5t44 15.5l15 -65q-26 -11 -56 -17.5t-62 -6.5q-30 0 -53 9t-39 24t-25.5 34t-12.5 39h-1q-6 -21 -17.5 -40t-27 -33.5t-36 -23t-45.5 -8.5q-45 0 -72 35t-27 95q0 39 14 71.5t39.5 56.5t62 37t81.5 13
v30q0 53 -16.5 83.5t-55.5 30.5q-46 0 -90 -32l-20 64q26 16 56 24t62 8q82 0 109 -77h1q14 34 42 55.5t63 21.5q68 0 101.5 -57t33.5 -152zM421 299q0 145 -67 145q-29 0 -50 -37t-23 -108h140zM206 240q-38 0 -62.5 -10t-38.5 -26t-19 -35t-5 -38q0 -32 11.5 -52.5
t34.5 -20.5q19 0 34 13.5t25 36t15 52.5t5 62v18z" />
    <glyph glyph-name="oslash" unicode="&#xf8;" 
d="M460 252q0 -58 -15 -106t-43.5 -82.5t-69 -53.5t-91.5 -19q-14 0 -27 1.5t-22 5.5l-33 -101l-52 17l33 102q-53 29 -76 91t-23 139q0 57 15.5 105t44 82.5t68 53.5t88.5 19q20 0 40 -3l30 93l51 -19l-29 -89q51 -26 81 -82.5t30 -153.5zM381 246q0 66 -15 106.5t-41 60.5
l-112 -349q17 -7 39 -7q54 0 91.5 48t37.5 141zM277 438q-14 3 -26 3q-27 0 -51 -11.5t-41.5 -35.5t-28 -59.5t-10.5 -83.5q0 -52 11 -92.5t35 -66.5z" />
    <glyph glyph-name="questiondown" unicode="&#xbf;" 
d="M341 446q0 -26 -18 -44t-44 -18t-44.5 18t-18.5 44t18.5 44t44.5 18t44 -18t18 -44zM379 -212q-74 0 -130 14t-93 39t-55.5 59t-18.5 74t16 69t38.5 52.5t47.5 45t43 46.5t24 56.5t-9 75.5h81q16 -48 11 -84t-21.5 -63.5t-40 -49.5t-45.5 -43.5t-37.5 -44t-15.5 -50.5
q0 -59 55 -90t155 -31z" />
    <glyph glyph-name="exclamdown" unicode="&#xa1;" 
d="M312 446q0 -26 -18 -44t-44 -18t-44 18t-18 44t18 44t44 18t44 -18t18 -44zM201 -208l13 527h70l14 -527h-97z" />
    <glyph glyph-name="logicalnot" unicode="&#xac;" 
d="M364 71v159h-315v66h385v-225h-70z" />
    <glyph glyph-name="radical" unicode="&#x221a;" 
d="M306 0h-110l-114 434h-75v63h141l106 -413l155 674h88z" />
    <glyph glyph-name="florin" unicode="&#x192;" 
d="M439 629q-35 11 -66 11q-38 0 -60.5 -30.5t-27.5 -102.5l-8 -108h158v-64h-162l-20 -290q-5 -67 -19 -111t-36.5 -70.5t-54 -37.5t-71.5 -11q-17 0 -36 3t-35 8l16 70q14 -6 31 -9.5t30 -3.5q37 0 62.5 32t30.5 113l22 307h-140v64h144l7 101q4 57 16.5 96.5t34 64
t52 35.5t70.5 11q19 0 40 -2.5t38 -7.5z" />
    <glyph glyph-name="approxequal" unicode="&#x2248;" 
d="M446 330q-20 -23 -49 -40.5t-65 -17.5q-29 0 -49 9.5t-38 20.5t-37 20.5t-44 9.5t-44.5 -13t-33.5 -27l-33 54q20 20 49 37.5t65 17.5q28 0 49.5 -9.5t40.5 -21.5t37 -21.5t40 -9.5t40.5 12t37.5 32zM447 157q-20 -20 -50 -37t-65 -17q-30 0 -51 9.5t-39 20.5t-36 20.5
t-42 9.5q-25 0 -44 -13t-33 -27l-34 54q20 20 48.5 38t63.5 18q28 0 49 -9.5t39.5 -21.5t37.5 -21.5t44 -9.5q21 0 40 10t39 30z" />
    <glyph glyph-name="Delta" unicode="&#x2206;" 
d="M0 0l196 675h103l201 -675h-500zM246 589l-150 -519h303z" />
    <glyph glyph-name="guillemotleft" unicode="&#xab;" 
d="M150 252l85 -172l-65 -33l-97 204l100 205l62 -32zM328 252l88 -161l-65 -33l-101 193l104 195l62 -32z" />
    <glyph glyph-name="guillemotright" unicode="&#xbb;" 
d="M350 252l-85 171l65 33l97 -204l-100 -205l-62 32zM172 252l-88 161l65 33l101 -194l-104 -194l-62 32z" />
    <glyph glyph-name="ellipsis" unicode="&#x2026;" 
d="M470 49q0 -24 -15 -41t-38 -17t-38 17t-15 41t15 41t38 17t38 -17t15 -41zM303 49q0 -24 -15 -41t-38 -17t-38 17t-15 41t15 41t38 17t38 -17t15 -41zM136 49q0 -24 -15 -41t-38 -17t-38 17t-15 41t15 41t38 17t38 -17t15 -41z" />
    <glyph glyph-name="nonbreakingspace" unicode="&#xa0;" 
 />
    <glyph glyph-name="Agrave" unicode="&#xc0;" 
d="M400 0l-43 160h-220l-44 -160h-83l188 675h105l187 -675h-90zM267 500q-6 22 -11 43.5t-8 40.5h-2q-3 -19 -8.5 -41l-10.5 -42l-75 -274h190zM281 720l-188 72l28 58l179 -87z" />
    <glyph glyph-name="Atilde" unicode="&#xc3;" 
d="M400 0l-43 160h-220l-44 -160h-83l188 675h105l187 -675h-90zM267 500q-6 22 -11 43.5t-8 40.5h-2q-3 -19 -8.5 -41l-10.5 -42l-75 -274h190zM406 783q-17 -26 -41 -41.5t-56 -15.5q-23 0 -38.5 6t-28.5 13.5t-26.5 13.5t-31.5 6q-17 0 -30.5 -10t-24.5 -25l-36 36
q17 28 40 43t57 15q21 0 37 -6t29.5 -13t27 -13t30.5 -6t31 9t25 24z" />
    <glyph glyph-name="Otilde" unicode="&#xd5;" 
d="M478 345q0 -85 -17.5 -151t-48.5 -111.5t-74.5 -69t-95.5 -23.5q-60 0 -102 24.5t-68.5 69t-38 107t-11.5 139.5q0 85 17.5 151t49 111.5t75 69t95.5 23.5q106 0 162.5 -87.5t56.5 -252.5zM390 333q0 141 -33.5 210.5t-105.5 69.5q-62 0 -101.5 -69.5t-39.5 -200.5
q0 -66 7.5 -118t24.5 -88t43 -55t64 -19q60 0 100.5 68t40.5 202zM406 783q-17 -26 -41 -41.5t-56 -15.5q-23 0 -38.5 6t-28.5 13.5t-26.5 13.5t-31.5 6q-17 0 -30.5 -10t-24.5 -25l-36 36q17 28 40 43t57 15q21 0 37 -6t29.5 -13t27 -13t30.5 -6t31 9t25 24z" />
    <glyph glyph-name="OE" unicode="&#x152;" 
d="M324 0q-17 0 -30 -1t-25 -2t-23.5 -2t-26.5 -1q-56 0 -95 24.5t-63.5 68.5t-35.5 106.5t-11 138.5q0 84 16 148.5t45.5 109t69.5 67.5t88 23q27 0 45.5 -2.5t43.5 -2.5h162v-68h-144v-226h134v-66h-134v-245h144v-70h-160zM266 607q-10 3 -18 4t-19 1q-30 0 -55 -18.5
t-43 -53t-28 -85t-10 -114.5q0 -62 7 -113t23.5 -87.5t42.5 -57t64 -20.5q18 0 36 6v538z" />
    <glyph glyph-name="oe" unicode="&#x153;" 
d="M492 298q0 -15 -0.5 -26.5t-1.5 -24.5h-192q-2 -99 21.5 -144t67.5 -45q45 0 78 20l19 -64q-22 -11 -49 -17.5t-56 -6.5q-50 0 -79.5 25t-40.5 71q-14 -44 -42.5 -69.5t-69.5 -25.5q-36 0 -62.5 18t-43 51.5t-24.5 80.5t-8 105q0 129 42 195t108 66q35 0 65.5 -22.5
t42.5 -69.5q11 42 39.5 67t65.5 25q34 0 57 -18t37 -47t20 -67t6 -77zM422 306q1 67 -15 102.5t-42 35.5q-25 0 -42.5 -36t-22.5 -102h122zM227 252q0 91 -17.5 141.5t-57.5 50.5q-30 0 -52.5 -47t-22.5 -146q0 -41 4 -77t13 -62.5t23.5 -42t35.5 -15.5q31 0 52.5 48
t21.5 150z" />
    <glyph glyph-name="endash" unicode="&#x2013;" 
d="M56 253v72h388v-72h-388z" />
    <glyph glyph-name="emdash" unicode="&#x2014;" 
d="M0 253v72h502v-72h-502z" />
    <glyph glyph-name="quotedblleft" unicode="&#x201c;" 
d="M463 691q-28 -12 -46 -26t-28.5 -28t-14.5 -27t-4 -25q0 -15 4 -26t9 -20t11 -18.5t9 -21.5q3 -14 1.5 -28t-8.5 -25t-19.5 -18.5t-30.5 -7.5q-32 0 -53 29.5t-21 70.5q0 73 41 126t123 90zM252 691q-55 -25 -74 -54t-19 -52q0 -15 4 -26t9.5 -20t11.5 -18.5t9 -21.5
q3 -14 1.5 -28t-9 -25t-19.5 -18.5t-30 -7.5q-33 0 -53.5 29t-20.5 71q0 73 41 126t122 90z" />
    <glyph glyph-name="quotedblright" unicode="&#x201d;" 
d="M438 633q0 -73 -41 -126t-122 -90l-27 45q55 25 74 54t19 52q0 15 -4 26t-9.5 20t-11.5 18.5t-9 21.5q-3 14 -1.5 28t9 25.5t19.5 18.5t30 7q33 0 53.5 -29t20.5 -71zM228 633q0 -73 -41 -126t-123 -90l-27 45q28 12 46 26t28.5 28t14.5 27t4 25q0 15 -4 26t-9 20
t-11 18.5t-9 21.5q-3 14 -1.5 28t8.5 25.5t19.5 18.5t30.5 7q32 0 53 -29.5t21 -70.5z" />
    <glyph glyph-name="quoteleft" unicode="&#x2018;" 
d="M383 682q-34 -10 -56.5 -23.5t-36 -28t-19 -29t-5.5 -27.5q0 -20 4.5 -32t11.5 -22t14 -20.5t13 -26.5q4 -14 2.5 -28.5t-9.5 -27.5t-21.5 -21t-32.5 -8q-21 0 -38 10t-28.5 27t-18 38.5t-6.5 45.5q0 90 57.5 146t152.5 82z" />
    <glyph glyph-name="quoteright" unicode="&#x2019;" 
d="M117 439q34 10 56.5 24t36 28.5t19 29t5.5 27.5q0 19 -4.5 31.5t-11.5 22.5t-14 20.5t-13 26.5q-5 13 -3 28t10 28t21.5 21t32.5 8q21 0 38 -10t28.5 -27t18 -38.5t6.5 -45.5q0 -91 -57.5 -146.5t-152.5 -81.5z" />
    <glyph glyph-name="divide" unicode="&#xf7;" 
d="M308 459q0 -24 -17 -41t-41 -17t-41 17t-17 41t17 41t41 17t41 -17t17 -41zM43 224v68h414v-68h-414zM308 55q0 -24 -17 -40.5t-41 -16.5t-41 16.5t-17 40.5t17 41t41 17t41 -17t17 -41z" />
    <glyph glyph-name="lozenge" unicode="&#x25ca;" 
d="M292 -6h-79l-192 347l188 340h78l191 -346zM245 593l-137 -249l146 -260l138 246z" />
    <glyph glyph-name="ydieresis" unicode="&#xff;" 
d="M282 -46q-38 -110 -98.5 -158t-152.5 -48v73q30 0 55 6t45.5 21t37.5 41t31 67l14 39l-190 502h91l107 -290q11 -31 19 -58t15 -52h2q5 23 16.5 59.5t25.5 79.5l86 261h87zM149 709q23 0 39.5 -16.5t16.5 -39.5t-16.5 -39.5t-39.5 -16.5t-39 16.5t-16 39.5t16 39.5
t39 16.5zM351 709q23 0 39 -16.5t16 -39.5t-16 -39.5t-39 -16.5t-39.5 16.5t-16.5 39.5t16.5 39.5t39.5 16.5z" />
    <glyph glyph-name="Ydieresis" unicode="&#x178;" 
d="M291 244v-244h-83v244l-200 431h91l118 -265q11 -23 18.5 -43.5t15.5 -43.5h1q8 22 18.5 49t18.5 44l115 259h89zM141 827q21 0 36 -15t15 -36t-15 -36t-36 -15t-36 15t-15 36t15 36t36 15zM359 827q21 0 36 -15t15 -36t-15 -36t-36 -15t-36 15t-15 36t15 36t36 15z" />
    <glyph glyph-name="fraction" unicode="&#x2044;" 
d="M90 -117l-67 29l380 842l68 -29z" />
    <glyph glyph-name="currency" unicode="&#xa4;" 
d="M433 -44q0 -33 -10 -70.5t-35.5 -69t-69 -52t-110.5 -20.5q-35 0 -70 5.5t-61 13.5l15 78q28 -13 60 -19.5t62 -6.5q32 0 57.5 8t43.5 26.5t28 49t10 74.5v22q0 30 2 58t6 57h-1q-18 -54 -59.5 -86.5t-92.5 -32.5q-78 0 -119 61t-41 176q0 67 17 118t48 86t74.5 53
t97.5 18q38 0 76 -4t72 -12v-531zM353 429q-19 5 -38.5 7t-37.5 2q-29 0 -55 -11.5t-45.5 -36t-30.5 -63t-11 -92.5q0 -88 24.5 -131t69.5 -43q26 0 49 18t39.5 48t26 68t9.5 79v155z" />
    <glyph glyph-name="guilsinglleft" unicode="&#x2039;" 
d="M282 30l-140 222l143 224l65 -37l-122 -187l122 -184z" />
    <glyph glyph-name="guilsinglright" unicode="&#x203a;" 
d="M211 30l-66 37l122 186l-121 185l68 38l140 -222z" />
    <glyph glyph-name="fi" unicode="&#xfb01;" 
d="M358 0v497h79v-497h-79zM395 650q-24 10 -53.5 15.5t-55.5 5.5q-58 0 -89.5 -36t-31.5 -106v-90h121v-65h-121v-374h-78v374h-79v65h79v77q0 108 51 164t151 56q31 0 63.5 -5.5t61.5 -14.5z" />
    <glyph glyph-name="fl" unicode="&#xfb02;" 
d="M359 0v661q-18 5 -40.5 7.5t-42.5 2.5q-55 0 -83 -31.5t-28 -103.5v-97h100v-65h-100v-374h-78v374h-79v65h79v105q0 92 47 142t150 50q35 0 76.5 -4t77.5 -12v-720h-79z" />
    <glyph glyph-name="daggerdbl" unicode="&#x2021;" 
d="M283 186l16 -186h-98l16 186h-146v64h146l-16 122l16 121h-146v63h146l-16 174h98l-16 -174h146v-63h-146l16 -121l-16 -122h146v-64h-146z" />
    <glyph glyph-name="periodcentered" unicode="&#xb7;" 
d="M250 380q35 0 59 -24t24 -59t-24 -59t-59 -24t-59 24t-24 59t24 59t59 24z" />
    <glyph glyph-name="quotesinglbase" unicode="&#x201a;" 
d="M103 -133q34 11 57 24.5t37 28.5t19.5 29.5t5.5 27.5q0 20 -5 32t-11.5 22t-14 20.5t-13.5 27.5q-5 14 -3 29.5t10 28t21.5 21t33.5 8.5q21 0 38 -10t29 -27.5t18.5 -39.5t6.5 -46q0 -46 -15 -83t-43 -65.5t-67 -49t-88 -33.5z" />
    <glyph glyph-name="quotedblbase" unicode="&#x201e;" 
d="M438 25q0 -73 -41 -126t-122 -90l-27 45q55 25 74 54t19 52q0 15 -4 26t-9.5 20t-11.5 18.5t-9 21.5q-3 13 -1.5 27.5t9 25.5t19.5 18.5t30 7.5q33 0 53.5 -29t20.5 -71zM228 25q0 -73 -41 -126t-123 -90l-27 45q28 12 46 26t28.5 28t14.5 27t4 25q0 15 -4 26t-9 20
t-11 18.5t-9 21.5q-3 13 -1.5 27.5t8.5 25.5t19.5 18.5t30.5 7.5q32 0 53 -29.5t21 -70.5z" />
    <glyph glyph-name="perthousand" unicode="&#x2030;" 
d="M220 597q0 -65 -30.5 -103t-78.5 -38q-51 0 -76 34.5t-25 100.5q0 70 31 106t77 36q49 0 75.5 -32t26.5 -104zM10 246l-26 49l503 328l26 -49zM490 131q0 -65 -30.5 -103t-79.5 -38q-51 0 -75.5 34.5t-24.5 100.5q0 70 31 106t77 36q48 0 75 -32t27 -104zM253 131
q0 -65 -30.5 -103t-79.5 -38q-51 0 -76 34.5t-25 100.5q0 70 31.5 106t77.5 36q48 0 75 -32t27 -104zM165 592q0 50 -12 72.5t-37 22.5q-51 0 -51 -89q0 -49 11.5 -72t38.5 -23q24 0 37 24t13 65zM435 126q0 50 -12 72.5t-38 22.5q-50 0 -50 -89q0 -49 11.5 -72t38.5 -23
q24 0 37 24t13 65zM198 126q0 50 -12 72.5t-38 22.5q-24 0 -37.5 -22.5t-13.5 -66.5q0 -49 12 -72t39 -23q24 0 37 24t13 65z" />
    <glyph glyph-name="Acircumflex" unicode="&#xc2;" 
d="M400 0l-43 160h-220l-44 -160h-83l188 675h105l187 -675h-90zM267 500q-6 22 -11 43.5t-8 40.5h-2q-3 -19 -8.5 -41l-10.5 -42l-75 -274h190zM377 723l-128 67l-126 -66l-22 43l149 86l153 -83z" />
    <glyph glyph-name="Ecircumflex" unicode="&#xca;" 
d="M89 0v675h328v-68h-245v-226h234v-66h-234v-245h246v-70h-329zM377 723l-128 67l-126 -66l-22 43l149 86l153 -83z" />
    <glyph glyph-name="Aacute" unicode="&#xc1;" 
d="M400 0l-43 160h-220l-44 -160h-83l188 675h105l187 -675h-90zM267 500q-6 22 -11 43.5t-8 40.5h-2q-3 -19 -8.5 -41l-10.5 -42l-75 -274h190zM379 850l28 -58l-188 -72l-19 43z" />
    <glyph glyph-name="Edieresis" unicode="&#xcb;" 
d="M89 0v675h328v-68h-245v-226h234v-66h-234v-245h246v-70h-329zM141 827q21 0 36 -15t15 -36t-15 -36t-36 -15t-36 15t-15 36t15 36t36 15zM359 827q21 0 36 -15t15 -36t-15 -36t-36 -15t-36 15t-15 36t15 36t36 15z" />
    <glyph glyph-name="Egrave" unicode="&#xc8;" 
d="M89 0v675h328v-68h-245v-226h234v-66h-234v-245h246v-70h-329zM281 720l-188 72l28 58l179 -87z" />
    <glyph glyph-name="Iacute" unicode="&#xcd;" 
d="M77 607v68h346v-68h-132v-537h132v-70h-346v70h131v537h-131zM379 850l28 -58l-188 -72l-19 43z" />
    <glyph glyph-name="Icircumflex" unicode="&#xce;" 
d="M77 607v68h346v-68h-132v-537h132v-70h-346v70h131v537h-131zM377 723l-128 67l-126 -66l-22 43l149 86l153 -83z" />
    <glyph glyph-name="Idieresis" unicode="&#xcf;" 
d="M77 607v68h346v-68h-132v-537h132v-70h-346v70h131v537h-131zM141 827q21 0 36 -15t15 -36t-15 -36t-36 -15t-36 15t-15 36t15 36t36 15zM359 827q21 0 36 -15t15 -36t-15 -36t-36 -15t-36 15t-15 36t15 36t36 15z" />
    <glyph glyph-name="Igrave" unicode="&#xcc;" 
d="M77 607v68h346v-68h-132v-537h132v-70h-346v70h131v537h-131zM281 720l-188 72l28 58l179 -87z" />
    <glyph glyph-name="Oacute" unicode="&#xd3;" 
d="M478 345q0 -85 -17.5 -151t-48.5 -111.5t-74.5 -69t-95.5 -23.5q-60 0 -102 24.5t-68.5 69t-38 107t-11.5 139.5q0 85 17.5 151t49 111.5t75 69t95.5 23.5q106 0 162.5 -87.5t56.5 -252.5zM390 333q0 141 -33.5 210.5t-105.5 69.5q-62 0 -101.5 -69.5t-39.5 -200.5
q0 -66 7.5 -118t24.5 -88t43 -55t64 -19q60 0 100.5 68t40.5 202zM379 850l28 -58l-188 -72l-19 43z" />
    <glyph glyph-name="Ocircumflex" unicode="&#xd4;" 
d="M478 345q0 -85 -17.5 -151t-48.5 -111.5t-74.5 -69t-95.5 -23.5q-60 0 -102 24.5t-68.5 69t-38 107t-11.5 139.5q0 85 17.5 151t49 111.5t75 69t95.5 23.5q106 0 162.5 -87.5t56.5 -252.5zM390 333q0 141 -33.5 210.5t-105.5 69.5q-62 0 -101.5 -69.5t-39.5 -200.5
q0 -66 7.5 -118t24.5 -88t43 -55t64 -19q60 0 100.5 68t40.5 202zM377 723l-128 67l-126 -66l-22 43l149 86l153 -83z" />
    <glyph glyph-name="apple" 
d="M82 609q-6 -5 -15 -14t-14 -17l-63 70q14 32 31 57zM74 764q11 14 27 26.5t29 19.5l37 -148q-9 -3 -20.5 -8.5t-19.5 -10.5zM272 677q-9 2 -21 1.5t-23 -1.5l-14 163q17 4 36 4.5t36 -4.5zM498 333q0 -54 -19 -99t-48 -74v-81l-18 -4l34 -80l-33 -9l33 -77l-33 -8l13 -29
l-34 -76h-52q-4 -18 -29.5 -31t-61.5 -13q-37 0 -62 13t-27 31h-54l-52 137l32 9l-32 80l37 10l-21 45v83q-31 32 -50 75.5t-19 97.5q0 52 19 97.5t52.5 79t79 53t97.5 19.5t97.5 -19.5t79 -53t52.5 -79t19 -97.5zM179 187l-16 130q-9 -2 -16 -4.5t-15 -4.5t-12 5t-5 17
t1.5 19t8.5 11q26 8 59 13.5t66 5.5q35 0 66 -5t59 -13q6 -2 9 -11.5t2 -19.5t-5 -17t-11 -4q-17 6 -34 9l-14 -131h56q26 22 45 60t19 86q0 40 -14.5 75t-40.5 61t-61 40.5t-76 14.5q-40 0 -75 -14.5t-61 -40.5t-41 -61t-15 -75q0 -42 16.5 -81t49.5 -65h55zM292 325
q-20 3 -42 3q-10 0 -21 -0.5t-21 -2.5l15 -138h55zM132 137v-50l17 -39l218 59v30h-235zM353 57l-222 -60l15 -39l223 61zM356 -30l-224 -62l25 -63h191l13 32l-6 14l-72 -20l-11 36l98 26zM479 705q8 -12 17 -27.5t14 -29.5l-63 -70q-14 18 -29 32zM373 643q-9 6 -20 11
t-20 8l37 148q16 -9 29.5 -20t26.5 -26zM242 349h-1v6h-1v-7h2v1zM245 353v-4q0 -1 -0.5 -1t-0.5 1v4h-1v-4q0 -2 1.5 -2t1.5 2v4h-1zM250 349q-2 -2 -2 1.5t2 1.5v1q-3 2 -2.5 -2.5t2.5 -2.5v1zM253 346q-1 5 0 10h-1q-1 -5 0 -10h1zM256 348h1v4q0 4 -3 1v-1q2 2 2 -1
q-5 0 -2 -3q0 -1 2 1v-1zM256 350q0 -1 -1 -1t-1 0.5t2 0.5zM260 353q-2 1 -2 -0.5t1 -2.5t-1 -1v-1q2 -1 2.5 0t-0.5 2q-2 2 0 2v1zM262 346q1 5 0 10h-1q1 -5 0 -10h1z" />
    <glyph glyph-name="Ograve" unicode="&#xd2;" 
d="M478 345q0 -85 -17.5 -151t-48.5 -111.5t-74.5 -69t-95.5 -23.5q-60 0 -102 24.5t-68.5 69t-38 107t-11.5 139.5q0 85 17.5 151t49 111.5t75 69t95.5 23.5q106 0 162.5 -87.5t56.5 -252.5zM390 333q0 141 -33.5 210.5t-105.5 69.5q-62 0 -101.5 -69.5t-39.5 -200.5
q0 -66 7.5 -118t24.5 -88t43 -55t64 -19q60 0 100.5 68t40.5 202zM281 720l-188 72l28 58l179 -87z" />
    <glyph glyph-name="Uacute" unicode="&#xda;" 
d="M455 251q0 -68 -15 -117t-43 -80.5t-67.5 -47t-88.5 -15.5q-57 0 -95 19t-60.5 51t-31.5 73t-9 86v455h82v-448q0 -35 5.5 -66t19 -53.5t37 -35.5t59.5 -13q59 0 92.5 42t33.5 141v433h81v-424zM379 850l28 -58l-188 -72l-19 43z" />
    <glyph glyph-name="Ucircumflex" unicode="&#xdb;" 
d="M455 251q0 -68 -15 -117t-43 -80.5t-67.5 -47t-88.5 -15.5q-57 0 -95 19t-60.5 51t-31.5 73t-9 86v455h82v-448q0 -35 5.5 -66t19 -53.5t37 -35.5t59.5 -13q59 0 92.5 42t33.5 141v433h81v-424zM377 723l-128 67l-126 -66l-22 43l149 86l153 -83z" />
    <glyph glyph-name="Ugrave" unicode="&#xd9;" 
d="M455 251q0 -68 -15 -117t-43 -80.5t-67.5 -47t-88.5 -15.5q-57 0 -95 19t-60.5 51t-31.5 73t-9 86v455h82v-448q0 -35 5.5 -66t19 -53.5t37 -35.5t59.5 -13q59 0 92.5 42t33.5 141v433h81v-424zM281 720l-188 72l28 58l179 -87z" />
    <glyph glyph-name="dotlessi" unicode="&#x131;" 
d="M75 0v65h155v369h-145v63h225v-432h139v-65h-374z" />
    <glyph glyph-name="circumflex" unicode="&#x2c6;" 
d="M363 571l-114 91l-112 -91l-36 42l150 122l149 -121z" />
    <glyph glyph-name="tilde" unicode="&#x2dc;" 
d="M405 649q-18 -27 -44 -43.5t-61 -16.5q-23 0 -38.5 7.5t-28 16t-26 16t-31.5 7.5q-17 0 -30.5 -9.5t-24.5 -24.5l-31 44q16 24 39.5 38t50.5 14q22 0 37.5 -7.5t29 -16.5t27 -16.5t31.5 -7.5q21 0 38 12t31 29l31 -42v0z" />
    <glyph glyph-name="macron" unicode="&#xaf;" 
d="M137 612v61h226v-61h-226z" />
    <glyph glyph-name="breve" unicode="&#x2d8;" 
d="M363 704q0 -26 -6.5 -49.5t-20.5 -41.5t-35.5 -28.5t-51.5 -10.5t-51.5 11t-35 29t-19.5 41.5t-6 48.5h55q0 -27 14.5 -47.5t43.5 -20.5q26 0 41.5 18t15.5 50h56v0z" />
    <glyph glyph-name="dotaccent" unicode="&#x2d9;" 
d="M320 642q0 -29 -20.5 -49.5t-49.5 -20.5t-49.5 20.5t-20.5 49.5t20.5 50t49.5 21t49.5 -21t20.5 -50z" />
    <glyph glyph-name="ring" unicode="&#x2da;" 
d="M346 644q0 -19 -7.5 -35.5t-21 -29t-31 -19.5t-36.5 -7q-42 0 -69 25.5t-27 65.5q0 19 7.5 36t21 29.5t30.5 19.5t37 7q42 0 69 -26t27 -66zM300 644q0 22 -14 36.5t-36 14.5t-36 -14.5t-14 -36.5q0 -21 14 -35.5t36 -14.5t36 14.5t14 35.5z" />
    <glyph glyph-name="cedilla" unicode="&#xb8;" 
d="M310 -51q12 -24 15.5 -48t-5 -48t-31.5 -47t-65 -44l-33 36q50 32 56.5 70.5t-16.5 80.5h79v0z" />
    <glyph glyph-name="hungarumlaut" unicode="&#x2dd;" 
d="M301 570l-39 42l131 124l49 -53zM139 571l-43 39l112 129l52 -48z" />
    <glyph glyph-name="ogonek" unicode="&#x2db;" 
d="M337 -219q-14 -4 -29 -5.5t-32 -1.5q-54 0 -74.5 24t-20.5 62q0 33 13.5 70t33.5 70h60q-15 -29 -25.5 -63.5t-10.5 -59.5q0 -14 3.5 -24.5t13 -16.5t26 -7t42.5 5v-53v0z" />
    <glyph glyph-name="caron" unicode="&#x2c7;" 
d="M249 561l-149 121l37 43l114 -91l112 90l36 -41z" />
    <glyph glyph-name="Eth" unicode="&#xd0;" 
d="M471 344q0 -175 -73.5 -261.5t-207.5 -86.5q-43 0 -69.5 2t-54.5 2v311h-52v65h52v298q29 1 65 2.5t82 1.5q132 0 195 -81t63 -253zM384 339q0 134 -40 203t-136 69q-20 0 -35 -0.5t-25 -1.5v-233h81v-65h-81v-240q11 -2 23.5 -4t27.5 -2q91 0 138 66t47 208z" />
    <glyph glyph-name="eth" unicode="&#xf0;" 
d="M459 298q0 -83 -18 -141t-48.5 -95t-70 -54t-82.5 -17q-42 0 -78.5 14t-63 44.5t-42 79t-15.5 117.5q0 58 15.5 105.5t43.5 81.5t67 53t87 19q33 0 63 -12.5t49 -41.5q-13 55 -32 93t-48 68l-85 -62l-38 40l76 54q-20 14 -46 22t-54 8q-12 0 -23 -1.5t-22 -3.5v64
q8 1 19.5 1.5t29.5 0.5q86 0 154 -45l68 50l37 -40l-60 -44q52 -52 84.5 -140t32.5 -218zM373 273q0 75 -32.5 119.5t-93.5 44.5q-54 0 -88 -46.5t-34 -138.5q0 -94 32 -142.5t89 -48.5q60 0 93.5 53.5t33.5 158.5z" />
    <glyph glyph-name="Lslash" unicode="&#x141;" 
d="M126 0v282l-72 -33l-16 58l88 40v328h81v-298l73 34l17 -58l-90 -40v-243h248v-70h-329z" />
  </font>
</defs>
</svg>
